<svg width="18" height="22" viewBox="0 0 18 22" fill="none" xmlns="http://www.w3.org/2000/svg">
<path d="M0.75 13.6351H0H0.75ZM3.48291 16.8334L3.58592 16.0905H3.58592L3.48291 16.8334ZM13.6693 16.8334L13.5663 16.0905H13.5662L13.6693 16.8334ZM1.21647 11.9372L0.572315 11.5531L1.21647 11.9372ZM3.23914 6.83696C3.23914 3.88944 5.62857 1.5 8.57609 1.5V0C4.80015 0 1.73914 3.06101 1.73914 6.83696H3.23914ZM3.23914 8.92949V6.83696H1.73914V8.92949H3.23914ZM1.5 13.6351C1.5 13.1537 1.63171 12.7052 1.86062 12.3214L0.572315 11.5531C0.208701 12.1628 5.96046e-08 12.8757 0 13.6351H1.5ZM3.58592 16.0905C2.38629 15.9242 1.5 14.8813 1.5 13.6351H0C-5.96046e-08 15.5948 1.40411 17.3024 3.3799 17.5763L3.58592 16.0905ZM8.57609 16.522C7.08411 16.522 5.15652 16.3083 3.58592 16.0905L3.3799 17.5763C4.96268 17.7958 6.97537 18.022 8.57609 18.022V16.522ZM13.5662 16.0905C11.9957 16.3083 10.0681 16.522 8.57609 16.522V18.022C10.1768 18.022 12.1895 17.7958 13.7723 17.5763L13.5662 16.0905ZM15.6522 13.6351C15.6522 14.8813 14.7659 15.9242 13.5663 16.0905L13.7723 17.5763C15.7481 17.3024 17.1522 15.5948 17.1522 13.6351H15.6522ZM15.2916 12.3214C15.5205 12.7052 15.6522 13.1537 15.6522 13.6351H17.1522C17.1522 12.8757 16.9435 12.1628 16.5799 11.5531L15.2916 12.3214ZM13.9131 6.83696V8.92951H15.4131V6.83696H13.9131ZM8.57609 1.5C11.5236 1.5 13.9131 3.88944 13.9131 6.83696H15.4131C15.4131 3.06101 12.352 0 8.57609 0V1.5ZM16.5799 11.5531C16.271 11.0351 15.9904 10.6201 15.7591 10.1566C15.5376 9.71289 15.4131 9.317 15.4131 8.92951H13.9131C13.9131 9.64235 14.1431 10.2778 14.417 10.8266C14.6811 11.3556 15.0369 11.8943 15.2916 12.3214L16.5799 11.5531ZM1.73914 8.92949C1.73914 9.31698 1.61462 9.71287 1.39311 10.1566C1.16176 10.6201 0.881211 11.0351 0.572315 11.5531L1.86062 12.3214C2.11531 11.8943 2.4711 11.3556 2.73519 10.8266C3.00912 10.2778 3.23914 9.64234 3.23914 8.92949H1.73914Z" fill="#717171"/>
<path d="M10.75 19.584C10.2826 20.2869 9.48347 20.7502 8.57609 20.7502C7.66871 20.7502 6.86954 20.2869 6.40218 19.584" stroke="#717171" stroke-width="1.5" stroke-linecap="round"/>
</svg>
