<svg width="22" height="19" viewBox="0 0 22 19" fill="none" xmlns="http://www.w3.org/2000/svg">
<path d="M0.75 8.20645C0.75 6.02136 2.52136 4.25 4.70645 4.25C5.33953 4.25 5.91169 3.87272 6.16107 3.29083L6.47075 2.56824C6.94349 1.46519 8.0281 0.75 9.22819 0.75H10.75H12.2718C13.4719 0.75 14.5565 1.46519 15.0292 2.56824L15.3389 3.29083C15.5883 3.87272 16.1605 4.25 16.7935 4.25C18.9786 4.25 20.75 6.02136 20.75 8.20645V13.25C20.75 16.0114 18.5114 18.25 15.75 18.25H5.75C2.98858 18.25 0.75 16.0114 0.75 13.25V8.20645Z" stroke="#717171" stroke-width="1.5"/>
<circle cx="3" cy="3" r="3" transform="matrix(-1 0 0 1 13.75 7.25)" stroke="#717171" stroke-width="1.5"/>
</svg>
