<svg width="21" height="21" viewBox="0 0 21 21" fill="none" xmlns="http://www.w3.org/2000/svg">
<path fill-rule="evenodd" clip-rule="evenodd" d="M17.7878 0.720099C16.8231 -0.240546 15.2597 -0.239958 14.2957 0.721415L6.8403 8.15835C6.24401 8.75305 5.89344 9.54915 5.85796 10.3891L5.75182 12.9018C5.7035 14.046 6.62116 14.9998 7.77025 14.9999L10.2424 15C11.15 15 12.0192 14.6349 12.6529 13.9874L20.0484 6.40804C20.9925 5.44344 20.9826 3.90152 20.0261 2.94907L17.7878 0.720099ZM15.2485 1.67018C15.6866 1.23319 16.3973 1.23293 16.8358 1.66958L19.0741 3.89856C19.5088 4.33149 19.5134 5.03236 19.0842 5.47082L17.5989 6.98837L13.7546 3.16008L15.2485 1.67018ZM12.8026 4.10956L7.79304 9.10711C7.43526 9.46393 7.22492 9.9416 7.20363 10.4456L7.0975 12.9583C7.08139 13.3397 7.38728 13.6576 7.77031 13.6576L10.2424 13.6577C10.787 13.6578 11.3085 13.4387 11.6888 13.0502L16.6584 7.94931L12.8026 4.10956Z" fill="#717171"/>
<path d="M18.75 11V15C18.75 17.7614 16.5114 20 13.75 20H5.75C2.98858 20 0.75 17.7614 0.75 15V7C0.75 4.23858 2.98858 2 5.75 2H9.75" stroke="#717171" stroke-width="1.5" stroke-linecap="round"/>
</svg>
