<?xml version="1.0" encoding="UTF-8"?>
<svg version="1.1" xmlns="http://www.w3.org/2000/svg" width="1024" height="1024">
<path d="M0 0 C2.80713817 0.07907431 5.61438131 0.14582775 8.421875 0.2109375 C16.44640525 0.40977049 24.41042943 0.66571277 32.39794922 1.50683594 C36.67453612 1.87984265 40.94886381 1.70858936 45.234375 1.57617188 C48.96771495 1.51443376 50.44816974 1.56961316 53.6484375 3.703125 C55.66437188 4.22822197 55.66437188 4.22822197 57.91796875 4.52734375 C58.79243652 4.665354 59.6669043 4.80336426 60.56787109 4.94555664 C61.52258301 5.0924292 62.47729492 5.23930176 63.4609375 5.390625 C73.23715976 6.99047111 82.8817886 9.01019099 92.5234375 11.265625 C93.78776611 11.55848389 95.05209473 11.85134277 96.35473633 12.15307617 C102.30986088 13.56252846 108.13929409 15.05629556 113.8894043 17.16162109 C116.1658726 17.86241314 118.28432966 17.77476463 120.6484375 17.703125 C121.3084375 18.363125 121.9684375 19.023125 122.6484375 19.703125 C124.42513928 20.44871494 126.23025228 21.12730429 128.046875 21.76953125 C129.15635498 22.1680127 130.26583496 22.56649414 131.40893555 22.97705078 C132.60172119 23.40228027 133.79450684 23.82750977 135.0234375 24.265625 C157.77459496 32.53740643 179.1126187 43.18458716 200.46875 54.50390625 C202.9466423 55.81676128 205.42920061 57.08795611 207.9453125 58.328125 C210.35862017 59.55570347 212.54221697 60.86377017 214.7734375 62.390625 C215.54558594 62.91527344 216.31773437 63.43992188 217.11328125 63.98046875 C217.94988281 64.54894531 218.78648437 65.11742187 219.6484375 65.703125 C221.54406713 66.9534339 223.43991294 68.20341507 225.3359375 69.453125 C232.22069938 74.04876883 238.95998663 78.82772455 245.6484375 83.703125 C246.29361328 84.17266602 246.93878906 84.64220703 247.60351562 85.12597656 C256.81918542 91.85981153 265.64929965 98.91043125 274.21923828 106.44873047 C275.39522096 107.48087926 276.58106385 108.50178293 277.76953125 109.51953125 C282.36105983 113.459359 286.78305309 117.58163317 291.2109375 121.703125 C291.83669678 122.28497559 292.46245605 122.86682617 293.10717773 123.46630859 C299.18929342 129.15275504 305.10381512 134.9300536 310.53125 141.25 C312.15531091 143.13175324 313.7958821 144.99160212 315.453125 146.84375 C328.4616409 161.47807604 340.13070034 177.19177124 350.6484375 193.703125 C351.29683594 194.71761719 351.94523438 195.73210937 352.61328125 196.77734375 C356.93352922 203.67737169 361.01715442 210.71522998 365.0859375 217.765625 C365.61880371 218.6829541 366.15166992 219.6002832 366.70068359 220.54541016 C367.44632568 221.84744385 367.44632568 221.84744385 368.20703125 223.17578125 C368.87690063 224.33992554 368.87690063 224.33992554 369.56030273 225.52758789 C370.6484375 227.703125 370.6484375 227.703125 371.17602539 229.92358398 C371.33192139 230.51083252 371.48781738 231.09808105 371.6484375 231.703125 C372.3084375 232.033125 372.9684375 232.363125 373.6484375 232.703125 C374.63476563 234.53125 374.63476563 234.53125 375.6796875 236.953125 C376.0730127 237.85861084 376.46633789 238.76409668 376.87158203 239.69702148 C377.29294434 240.68903564 377.71430664 241.6810498 378.1484375 242.703125 C378.58913574 243.73187744 379.02983398 244.76062988 379.48388672 245.82055664 C401.17882652 296.76939379 417.76105465 350.59267427 417.81640625 406.5078125 C417.81973465 407.70761749 417.82306305 408.90742249 417.82649231 410.14358521 C417.83152916 412.67319357 417.83390164 415.2028085 417.83374023 417.73242188 C417.83591153 421.53266868 417.85406069 425.33261747 417.87304688 429.1328125 C417.90707471 443.44379932 417.43990187 457.50022674 415.6484375 471.703125 C415.55920013 472.42163635 415.46996277 473.14014771 415.37802124 473.88043213 C414.78793877 478.54083104 414.11218664 483.18484982 413.3984375 487.828125 C413.2388707 488.86913864 413.2388707 488.86913864 413.07608032 489.93118286 C409.4997616 513.07702841 404.06407549 535.48232244 396.6484375 557.703125 C396.27203125 558.83363281 395.895625 559.96414063 395.5078125 561.12890625 C384.02251955 595.2402263 368.76585264 627.73558509 348.91064453 657.79150391 C347.77765952 659.50741737 346.66300835 661.23540311 345.55078125 662.96484375 C335.55384191 678.34001329 323.96924662 692.56720873 312.0234375 706.453125 C311.49693604 707.06744385 310.97043457 707.6817627 310.42797852 708.31469727 C307.16922378 712.07557919 303.76690229 715.62538473 300.22363281 719.11865234 C297.68726948 721.66995396 295.4231875 724.43243106 293.12890625 727.19921875 C292.64035156 727.69550781 292.15179687 728.19179688 291.6484375 728.703125 C290.9884375 728.703125 290.3284375 728.703125 289.6484375 728.703125 C289.43445313 729.25355469 289.22046875 729.80398438 289 730.37109375 C287.19003409 733.49406961 284.69736444 735.65111195 282.0234375 738.015625 C281.4778418 738.50562988 280.93224609 738.99563477 280.37011719 739.50048828 C279.28346671 740.47436102 278.19433385 741.44547219 277.10253906 742.41357422 C275.94262387 743.4422297 274.79030608 744.47945012 273.640625 745.51953125 C271.67055646 747.28199167 269.66758432 748.99694594 267.6484375 750.703125 C267.12894531 751.14317871 266.60945312 751.58323242 266.07421875 752.03662109 C255.07417573 761.30348957 243.53178214 769.61203777 231.6484375 777.703125 C230.49142334 778.49831543 230.49142334 778.49831543 229.31103516 779.30957031 C172.77314647 818.13752831 107.72400496 842.5789675 39.6484375 850.703125 C38.68115723 850.82026855 37.71387695 850.93741211 36.71728516 851.05810547 C-12.35117747 856.69248106 -62.48183882 851.97702564 -110.265625 840.15625 C-116.04911161 838.73867755 -121.37512323 837.703125 -127.3515625 837.703125 C-127.3515625 836.713125 -127.3515625 835.723125 -127.3515625 834.703125 C-127.89901123 834.59210449 -128.44645996 834.48108398 -129.01049805 834.36669922 C-183.60577504 822.83191199 -237.15294379 788.2800205 -279.56640625 752.99609375 C-281.25415517 751.507595 -281.25415517 751.507595 -283.3515625 751.703125 C-283.6815625 750.713125 -284.0115625 749.723125 -284.3515625 748.703125 C-286.27208904 746.98134614 -286.27208904 746.98134614 -288.6015625 745.328125 C-291.56176733 743.15267246 -294.24055374 740.9131302 -296.80712891 738.28271484 C-298.80079501 736.24366652 -300.82908877 734.24090878 -302.85546875 732.234375 C-304.5417309 730.55735626 -306.22792706 728.88027114 -307.9140625 727.203125 C-308.76419922 726.36136719 -309.61433594 725.51960937 -310.49023438 724.65234375 C-311.31201172 723.83378906 -312.13378906 723.01523437 -312.98046875 722.171875 C-313.72369385 721.43388672 -314.46691895 720.69589844 -315.23266602 719.93554688 C-317.42428542 717.62650576 -319.37690138 715.19835292 -321.3515625 712.703125 C-323.01282672 711.03107335 -324.67986822 709.36474884 -326.3515625 707.703125 C-340.12774113 692.38725582 -352.12681218 675.95181101 -363.3515625 658.703125 C-364.88824027 656.34557997 -366.43036038 653.9919666 -367.9765625 651.640625 C-368.89308594 650.23103516 -368.89308594 650.23103516 -369.828125 648.79296875 C-371.18557129 646.59473267 -371.18557129 646.59473267 -373.3515625 645.703125 C-373.47917969 644.99671875 -373.60679687 644.2903125 -373.73828125 643.5625 C-374.52021503 639.91679601 -376.2708338 637.11109088 -378.1640625 633.953125 C-382.4486189 626.58550627 -386.22721651 619.01028912 -389.9140625 611.328125 C-390.45071533 610.21598633 -390.98736816 609.10384766 -391.5402832 607.95800781 C-395.3515625 599.96020385 -395.3515625 599.96020385 -395.3515625 597.703125 C-396.0115625 597.373125 -396.6715625 597.043125 -397.3515625 596.703125 C-398.0625 594.98828125 -398.0625 594.98828125 -398.7265625 592.765625 C-400.33659048 587.63004859 -402.30537257 582.67837868 -404.3515625 577.703125 C-405.3415625 577.703125 -406.3315625 577.703125 -407.3515625 577.703125 C-407.21814453 576.13498047 -407.21814453 576.13498047 -407.08203125 574.53515625 C-407.08625269 568.13685923 -409.54887422 562.34922517 -411.6640625 556.390625 C-412.47557661 554.06221369 -413.28420708 551.7327952 -414.08984375 549.40234375 C-414.67499756 547.72084229 -414.67499756 547.72084229 -415.27197266 546.00537109 C-416.58450884 541.99058946 -417.61948648 537.93832184 -418.56713867 533.82348633 C-419.24654554 531.34854245 -419.24654554 531.34854245 -422.3515625 529.703125 C-422.16223145 528.84952393 -421.97290039 527.99592285 -421.77783203 527.11645508 C-421.31225289 523.38835545 -421.71863778 520.74712198 -422.53125 517.08984375 C-422.80066406 515.84138672 -423.07007813 514.59292969 -423.34765625 513.30664062 C-423.63994265 512.00114913 -423.93291588 510.69581122 -424.2265625 509.390625 C-427.42455027 494.88285855 -427.42455027 494.88285855 -427.921875 489.34765625 C-428.06367188 488.14496094 -428.20546875 486.94226563 -428.3515625 485.703125 C-429.0115625 485.373125 -429.6715625 485.043125 -430.3515625 484.703125 C-429.6915625 484.703125 -429.0315625 484.703125 -428.3515625 484.703125 C-428.43720459 484.08606689 -428.52284668 483.46900879 -428.61108398 482.83325195 C-430.57917343 468.45330876 -432.05419392 454.2171898 -432.3515625 439.703125 C-432.37347656 438.67300293 -432.39539063 437.64288086 -432.41796875 436.58154297 C-432.88765338 410.22049295 -431.6991811 383.73443468 -427.3515625 357.703125 C-427.18285645 356.67477539 -427.01415039 355.64642578 -426.84033203 354.58691406 C-419.50354976 310.59239985 -405.21060741 269.53880582 -385.3515625 229.703125 C-384.95469238 228.90535645 -384.55782227 228.10758789 -384.14892578 227.28564453 C-374.63853343 208.33624025 -363.110123 190.61201595 -350.3515625 173.703125 C-349.77229004 172.93307129 -349.19301758 172.16301758 -348.59619141 171.36962891 C-342.06661229 162.72832575 -335.40137419 154.34207046 -327.94921875 146.4765625 C-325.98481681 144.37923111 -324.10611953 142.26210435 -322.23828125 140.08203125 C-317.90336845 135.10506116 -313.2663258 130.43182451 -308.60107422 125.76733398 C-307.11263013 124.27670885 -305.63238973 122.77825483 -304.15234375 121.27929688 C-298.61557782 115.7107962 -292.9348953 110.53726203 -286.77197266 105.64990234 C-284.42722701 103.76398326 -282.19537396 101.79724613 -279.9765625 99.765625 C-274.96963752 95.27878554 -269.67169773 91.19999613 -264.29882812 87.16601562 C-262.93568356 86.14194814 -261.57522416 85.11430113 -260.21679688 84.08398438 C-200.68791429 38.98634606 -129.03796117 9.94555139 -54.7265625 2.015625 C-53.60830078 1.89606445 -52.49003906 1.77650391 -51.33789062 1.65332031 C-34.22782798 -0.0419616 -17.18099962 -0.48671387 0 0 Z M-218.3515625 93.703125 C-219.11339844 94.19312988 -219.87523437 94.68313477 -220.66015625 95.18798828 C-230.57677586 101.60450317 -240.13003056 108.31575416 -249.3515625 115.703125 C-249.97772461 116.19925293 -250.60388672 116.69538086 -251.24902344 117.20654297 C-259.66626553 123.8799494 -267.77876911 130.76132582 -275.58203125 138.14453125 C-278.09063598 140.46207159 -280.66401763 142.59881469 -283.3515625 144.703125 C-285.12433509 146.22320342 -285.12433509 146.22320342 -286.3515625 147.703125 C-286.3515625 148.363125 -286.3515625 149.023125 -286.3515625 149.703125 C-286.93035156 149.94675781 -287.50914062 150.19039063 -288.10546875 150.44140625 C-290.75914905 151.93208231 -292.28723772 153.59678739 -294.2890625 155.890625 C-295.07539063 156.7878125 -295.86171875 157.685 -296.671875 158.609375 C-297.10016602 159.104375 -297.52845703 159.599375 -297.96972656 160.109375 C-299.43972016 161.80480225 -300.92230524 163.48864971 -302.40625 165.171875 C-314.31468407 178.72889137 -325.4319769 192.61816828 -335.3515625 207.703125 C-336.07061768 208.79318848 -336.07061768 208.79318848 -336.80419922 209.90527344 C-345.03206294 222.45459674 -352.43927399 235.38613549 -359.3515625 248.703125 C-359.78710449 249.54004883 -360.22264648 250.37697266 -360.67138672 251.23925781 C-368.68172223 266.82876891 -374.66921177 283.15672046 -380.3515625 299.703125 C-380.69848145 300.71101074 -381.04540039 301.71889648 -381.40283203 302.75732422 C-390.68927255 330.21681953 -395.54985025 358.91846453 -398.3515625 387.703125 C-398.50733765 389.30172363 -398.50733765 389.30172363 -398.66625977 390.93261719 C-399.60948002 402.13074226 -399.55098853 413.34789431 -399.5390625 424.578125 C-399.53845825 425.62592133 -399.537854 426.67371765 -399.53723145 427.75326538 C-399.5136018 442.8273957 -399.33541563 457.73797202 -397.3515625 472.703125 C-397.22265625 473.70859375 -397.09375 474.7140625 -396.9609375 475.75 C-392.33793129 510.8506027 -383.75672098 546.25589276 -369.3515625 578.703125 C-368.92149902 579.6823291 -368.49143555 580.6615332 -368.04833984 581.67041016 C-350.62089911 621.11401255 -328.3473916 657.42020256 -298.85546875 689.015625 C-296.51971938 691.52263837 -294.23997509 694.06837294 -291.9765625 696.640625 C-286.47736283 703.2024906 -286.47736283 703.2024906 -279.3515625 707.703125 C-279.3515625 708.363125 -279.3515625 709.023125 -279.3515625 709.703125 C-277.87109458 711.23989016 -277.87109458 711.23989016 -275.9140625 712.828125 C-271.93534927 716.19691071 -268.0745064 719.6735232 -264.234375 723.19921875 C-262.49273366 724.91115893 -262.49273366 724.91115893 -260.3515625 724.703125 C-260.3515625 725.363125 -260.3515625 726.023125 -260.3515625 726.703125 C-256.90754515 729.9537418 -253.0833317 732.78999477 -249.3515625 735.703125 C-248.67689941 736.2300293 -248.00223633 736.75693359 -247.30712891 737.29980469 C-239.5033146 743.37238532 -231.72011856 749.42107061 -223.3515625 754.703125 C-222.61164063 755.19296875 -221.87171875 755.6828125 -221.109375 756.1875 C-161.91370938 794.91363639 -88.01141971 821.45806616 -16.64453125 819.7109375 C-13.97945395 819.65945239 -11.76417353 819.79642866 -9.10546875 820.21875 C-3.42086019 820.95224788 2.18356371 820.58043731 7.8984375 820.328125 C9.08179688 820.28429687 10.26515625 820.24046875 11.484375 820.1953125 C17.66580997 820.03772641 17.66580997 820.03772641 23.6484375 818.703125 C25.11956054 818.67397647 26.59191817 818.69277401 28.0625 818.7421875 C34.15425198 818.79726663 40.01106263 817.99973959 46.0234375 817.078125 C47.19535645 816.89918701 48.36727539 816.72024902 49.57470703 816.53588867 C129.1984013 803.96846895 203.99690326 767.68231418 262.2578125 711.8828125 C264.93953077 709.32498604 267.74409265 707.00675104 270.6484375 704.703125 C272.00230686 703.05309672 273.33521892 701.3856863 274.6484375 699.703125 C276.8675243 697.4223969 279.13229422 695.19776231 281.4296875 692.99609375 C286.98177459 687.58721526 291.81584337 681.75530124 296.6484375 675.703125 C297.59775858 674.54328781 298.54833372 673.38447619 299.5 672.2265625 C306.73416968 663.37968735 313.36611788 654.24733385 319.6484375 644.703125 C320.12249023 643.98705078 320.59654297 643.27097656 321.08496094 642.53320312 C336.17882561 619.60504797 348.64176039 595.25630934 358.6484375 569.703125 C358.9256665 568.99961914 359.20289551 568.29611328 359.48852539 567.57128906 C382.26337586 509.19988212 389.85591773 446.88971254 384.6484375 384.703125 C384.54208984 383.39649902 384.54208984 383.39649902 384.43359375 382.06347656 C384.01970069 377.24669055 383.39747285 372.47735033 382.6484375 367.703125 C382.50067871 366.73793945 382.35291992 365.77275391 382.20068359 364.77832031 C376.17377896 326.25929223 364.61094785 289.73560014 347.6484375 254.703125 C347.1848584 253.7430957 347.1848584 253.7430957 346.71191406 252.76367188 C332.75499208 223.99966008 315.79410418 196.74779438 294.6484375 172.703125 C294.01421875 171.96964844 293.38 171.23617187 292.7265625 170.48046875 C291.04689274 168.5426846 289.34984638 166.62184568 287.6484375 164.703125 C287.00455078 163.97512695 286.36066406 163.24712891 285.69726562 162.49707031 C280.22968301 156.36410732 274.58565191 150.44723403 268.7734375 144.640625 C267.89357178 143.76156494 267.01370605 142.88250488 266.10717773 141.97680664 C260.99485583 136.91266517 255.87607568 132.09532194 250.1875 127.68359375 C247.78369558 125.8086263 245.48215393 123.84340067 243.18481445 121.84033203 C229.10003787 109.62019147 213.57123371 99.3516202 197.6484375 89.703125 C196.87918945 89.23664551 196.10994141 88.77016602 195.31738281 88.28955078 C166.27582506 70.80709598 133.75708527 54.6233257 100.6484375 46.703125 C98.66397787 46.19564334 96.67961379 45.68778797 94.6953125 45.1796875 C73.45323174 39.15702309 73.45323174 39.15702309 51.6484375 36.703125 C51.3184375 36.373125 50.9884375 36.043125 50.6484375 35.703125 C48.81569245 35.41421192 46.9732315 35.18658673 45.12890625 34.984375 C43.97124756 34.85716064 42.81358887 34.72994629 41.62084961 34.59887695 C40.37182861 34.46827881 39.12280762 34.33768066 37.8359375 34.203125 C36.56306885 34.0693042 35.2902002 33.9354834 33.97875977 33.79760742 C-54.43118707 24.78459162 -143.4700579 45.50065914 -218.3515625 93.703125 Z M-406.3515625 572.703125 C-405.3515625 574.703125 -405.3515625 574.703125 -405.3515625 574.703125 Z " fill="#050505" transform="translate(519.3515625,86.296875)"/>
<path d="M0 0 C0.66 0 1.32 0 2 0 C2 0.66 2 1.32 2 2 C2.64582031 1.97679687 3.29164063 1.95359375 3.95703125 1.9296875 C12.95867514 1.7572894 21.74488338 2.69339635 30.66943359 3.72998047 C34.4447288 4.16738634 38.22251797 4.58195363 42 5 C42 5.66 42 6.32 42 7 C43.155 7.165 44.31 7.33 45.5 7.5 C56.59688324 9.9757287 67.64395192 16.42580437 76 24 C76.73347656 24.63035156 77.46695312 25.26070313 78.22265625 25.91015625 C91.42084656 38.0217031 98.10055642 54.40378893 99.125 72.16748047 C100.14866847 102.67919895 90.13004985 127.56568893 71 151 C70.14423029 152.08206747 69.290058 153.16540023 68.4375 154.25 C63.86839695 159.99066794 63.86839695 159.99066794 62 162 C61.34 162 60.68 162 60 162 C59.78601563 162.5465625 59.57203125 163.093125 59.3515625 163.65625 C57.52856058 166.81752501 55.04839829 169.06999947 52.375 171.5 C51.80378418 172.02190918 51.23256836 172.54381836 50.64404297 173.08154297 C-7.95649072 225.66287691 -87.27835192 245.03059276 -161.70228577 263.1855011 C-162.62190598 263.41061874 -163.54152618 263.63573639 -164.48901367 263.86767578 C-165.29151047 264.06322052 -166.09400726 264.25876526 -166.92082214 264.4602356 C-168.63320691 264.90477878 -170.32164002 265.44054667 -172 266 C-178.3864663 296.52578831 -177.4097496 329.70271099 -161 357 C-149.87494833 371.77107701 -135.25330986 379.68257281 -117.13671875 382.49609375 C-76.60831951 387.89924502 -38.31737089 365.1667773 -7 342 C-6.46310547 341.60876953 -5.92621094 341.21753906 -5.37304688 340.81445312 C5.55392476 332.83497566 15.47202063 323.77167208 24.8515625 314.02734375 C25.47490479 313.38442383 26.09824707 312.74150391 26.74047852 312.07910156 C27.9250927 310.84924886 29.09821706 309.60818793 30.25756836 308.35449219 C32.84662937 305.66133853 34.51768369 304.16420568 38.109375 302.94140625 C41.54268382 303.01100035 42.93896905 303.73536998 45.6875 305.75 C46.43386719 306.28109375 47.18023438 306.8121875 47.94921875 307.359375 C49.76823137 308.8145851 51.39844557 310.31201248 53 312 C51.65460159 316.80292767 49.55155775 320.51778495 46.625 324.5 C46.18728271 325.10312012 45.74956543 325.70624023 45.29858398 326.32763672 C37.02637353 337.54828582 27.53084574 347.84592511 18 358 C17.08154297 358.98226562 17.08154297 358.98226562 16.14453125 359.984375 C12.05656692 364.21799127 7.57506296 367.88580874 2.98828125 371.56640625 C0.48039375 373.60877737 -1.96013086 375.70674951 -4.38989258 377.84057617 C-45.53129881 413.64703432 -98.30142812 434.59312404 -153 431 C-159.11100862 430.3055885 -165.04567149 429.09245809 -170.98876953 427.52587891 C-172.9281442 427.01878823 -174.88408772 426.57641568 -176.83984375 426.13671875 C-182.7510889 424.79168631 -182.7510889 424.79168631 -185 424 C-185.33 423.34 -185.66 422.68 -186 422 C-187.19625 421.62875 -188.3925 421.2575 -189.625 420.875 C-200.98526761 417.26942862 -211.12571571 410.8475076 -220 403 C-220.93457031 402.19691406 -221.86914062 401.39382813 -222.83203125 400.56640625 C-228.0139544 396.03675314 -228.0139544 396.03675314 -230 394 C-230 393.34 -230 392.68 -230 392 C-230.66 392 -231.32 392 -232 392 C-255.78580501 363.76937284 -265.73206366 326.51627423 -264 290 C-263.96422852 289.19320801 -263.92845703 288.38641602 -263.89160156 287.55517578 C-262.1437157 252.9993447 -251.43429262 220.11641201 -235.75195312 189.48828125 C-234.19905637 186.45235221 -232.73133718 183.42307821 -231.421875 180.2734375 C-230.26869188 177.61858185 -229.16625242 175.51923738 -227.5 173.1875 C-224.9046535 169.42296276 -222.51161282 165.57183328 -220.15795898 161.65429688 C-211.98979568 148.06854649 -202.76781066 135.46851327 -193 123 C-192.34515625 122.16082031 -191.6903125 121.32164062 -191.015625 120.45703125 C-178.00913034 103.98392955 -164.07710267 87.56055211 -148.1328125 73.859375 C-146.69010448 72.60162954 -145.26846124 71.3193742 -143.8671875 70.015625 C-126.52949946 53.91214526 -106.57342726 40.58053574 -86 29 C-84.977854 28.41605469 -84.977854 28.41605469 -83.93505859 27.8203125 C-59.35678367 13.85258725 -27.77769218 1.28855135 1 3 C0.67 2.01 0.34 1.02 0 0 Z M-27 38 C-28.8871875 38.556875 -28.8871875 38.556875 -30.8125 39.125 C-49.13404915 45.16210062 -64.37280134 57.78937417 -78 71 C-78.75023437 71.71027344 -79.50046875 72.42054688 -80.2734375 73.15234375 C-90.1097297 82.65816764 -98.10788128 93.87630539 -106 105 C-106.41362793 105.58201172 -106.82725586 106.16402344 -107.25341797 106.76367188 C-127.94067805 136.14775269 -165 193.73653914 -165 232 C-158.74104934 231.35954924 -152.83463396 230.0798382 -146.75 228.5 C-145.42355469 228.16162109 -145.42355469 228.16162109 -144.0703125 227.81640625 C-142.43400846 227.39867909 -140.79819921 226.97900476 -139.16308594 226.55664062 C-137.77058704 226.19830005 -136.37639243 225.84645369 -134.98022461 225.50268555 C-91.58589924 214.48691487 -42.35298362 194.03067906 -12.77734375 159.08984375 C-10.92133414 156.90750277 -8.99569681 154.80158072 -7.0625 152.6875 C13.88510822 129.00058916 27.36747948 98.25991709 26.17919922 66.44238281 C25.45695911 56.5986634 21.42843123 46.7524379 13.9296875 40.1875 C2.40495364 31.83507964 -14.44836322 31.57356197 -27 38 Z " fill="#020303" transform="translate(558,272)"/>
<path d="M0 0 C10.72344672 11.27081523 13.87311491 26.48095089 13.5859375 41.51953125 C12.84570441 57.80832365 5.25518608 73.8252288 -6.6875 84.8125 C-19.27605209 95.54589705 -33.5252118 100.73483847 -50.11816406 99.53320312 C-63.36787585 98.20056634 -73.69585132 92.73753781 -82.6875 82.8125 C-90.98019905 71.82858541 -93.62835811 61.47094976 -94.25 47.9375 C-94.29318359 47.05835938 -94.33636719 46.17921875 -94.38085938 45.2734375 C-94.48619339 43.11994203 -94.58727649 40.96623936 -94.6875 38.8125 C-94.0275 38.8125 -93.3675 38.8125 -92.6875 38.8125 C-92.67332031 38.24144531 -92.65914062 37.67039062 -92.64453125 37.08203125 C-91.7936713 22.61741211 -84.70795408 8.80231477 -73.97265625 -0.84765625 C-72.45675827 -2.11863418 -72.45675827 -2.11863418 -72.6875 -4.1875 C-71.73875 -4.579375 -70.79 -4.97125 -69.8125 -5.375 C-66.69415746 -6.7006112 -63.69725595 -8.19449922 -60.6875 -9.75 C-40.51134445 -19.85324782 -16.38760262 -14.98909824 0 0 Z " fill="#020303" transform="translate(726.6875,596.1875)"/>
<path d="M0 0 C0.66 0.33 1.32 0.66 2 1 C-8.56 11.56 -19.12 22.12 -30 33 C-30.66 32.67 -31.32 32.34 -32 32 C-21.78415141 20.81758641 -11.1542299 10.24615987 0 0 Z " fill="#292828" transform="translate(415,341)"/>
<path d="M0 0 C5.28140204 0.68748826 10.48958255 0.60932813 15.80859375 0.56640625 C16.87400391 0.56189453 17.93941406 0.55738281 19.03710938 0.55273438 C21.64849666 0.54102412 24.25976499 0.52462349 26.87109375 0.50390625 C26.87109375 0.83390625 26.87109375 1.16390625 26.87109375 1.50390625 C10.49065799 2.8750638 -5.74847049 2.8750638 -22.12890625 1.50390625 C-22.12890625 1.17390625 -22.12890625 0.84390625 -22.12890625 0.50390625 C-20.08748231 0.33429239 -18.04575314 0.16835029 -16.00390625 0.00390625 C-14.29847656 -0.1353125 -14.29847656 -0.1353125 -12.55859375 -0.27734375 C-8.26238416 -0.55136167 -4.26184426 -0.67572312 0 0 Z " fill="#353534" transform="translate(510.12890625,905.49609375)"/>
<path d="M0 0 C2.31 0 4.62 0 7 0 C7 0.33 7 0.66 7 1 C4.69 1 2.38 1 0 1 C0 0.67 0 0.34 0 0 Z " fill="#232222" transform="translate(528,904)"/>
<path d="M0 0 C1.98 0 3.96 0 6 0 C6 0.33 6 0.66 6 1 C4.02 1 2.04 1 0 1 C0 0.67 0 0.34 0 0 Z " fill="#222021" transform="translate(491,904)"/>
<path d="M0 0 C0.33 0.99 0.66 1.98 1 3 C0.34 3.66 -0.32 4.32 -1 5 C-0.67 3.35 -0.34 1.7 0 0 Z " fill="#211F20" transform="translate(578,370)"/>
<path d="M0 0 C0.66 0.99 1.32 1.98 2 3 C1.01 2.67 0.02 2.34 -1 2 C-0.67 1.34 -0.34 0.68 0 0 Z " fill="#1F1D1D" transform="translate(137,715)"/>
<path d="M0 0 C0.99 0.99 1.98 1.98 3 3 C2.01 2.67 1.02 2.34 0 2 C0 1.34 0 0.68 0 0 Z " fill="#201F1E" transform="translate(336,674)"/>
<path d="M0 0 C0.66 0.66 1.32 1.32 2 2 C1.01 2 0.02 2 -1 2 C-0.67 1.34 -0.34 0.68 0 0 Z " fill="#1C1B1A" transform="translate(209,210)"/>
<path d="M0 0 C4 1 4 1 4 1 Z " fill="#232222" transform="translate(580,898)"/>
<path d="M0 0 C0.66 0.33 1.32 0.66 2 1 C1.01 1 0.02 1 -1 1 C-0.67 0.67 -0.34 0.34 0 0 Z " fill="#1E1E1D" transform="translate(329,898)"/>
<path d="M0 0 C4 1 4 1 4 1 Z " fill="#242321" transform="translate(590,896)"/>
<path d="M0 0 C0.66 0.66 1.32 1.32 2 2 C1.01 1.67 0.02 1.34 -1 1 C-0.67 0.67 -0.34 0.34 0 0 Z " fill="#1E1D1C" transform="translate(681,864)"/>
<path d="M0 0 C4 1 4 1 4 1 Z " fill="#262424" transform="translate(401,703)"/>
<path d="M0 0 C0.99 0 1.98 0 3 0 C2.67 0.66 2.34 1.32 2 2 C1.34 1.34 0.68 0.68 0 0 Z " fill="#242323" transform="translate(578,585)"/>
<path d="M0 0 C1 4 1 4 1 4 Z " fill="#1F1E1F" transform="translate(383,572)"/>
<path d="M0 0 C1 4 1 4 1 4 Z " fill="#252424" transform="translate(935,560)"/>
<path d="M0 0 C0.99 0.33 1.98 0.66 3 1 C2.01 1 1.02 1 0 1 C0 0.67 0 0.34 0 0 Z " fill="#262625" transform="translate(435,526)"/>
<path d="M0 0 C0.99 0 1.98 0 3 0 C2.67 0.66 2.34 1.32 2 2 C1.34 1.34 0.68 0.68 0 0 Z " fill="#242424" transform="translate(531,494)"/>
<path d="M0 0 C0.66 0 1.32 0 2 0 C1.67 0.99 1.34 1.98 1 3 C0.67 2.01 0.34 1.02 0 0 Z " fill="#232121" transform="translate(897,442)"/>
<path d="M0 0 C0.99 0.33 1.98 0.66 3 1 C2.01 1.33 1.02 1.66 0 2 C0 1.34 0 0.68 0 0 Z " fill="#1F1F1D" transform="translate(437,320)"/>
<path d="M0 0 C0.99 0.33 1.98 0.66 3 1 C2.01 1 1.02 1 0 1 C0 0.67 0 0.34 0 0 Z " fill="#201F1F" transform="translate(457,304)"/>
<path d="M0 0 C0.99 0.33 1.98 0.66 3 1 C2.01 1.33 1.02 1.66 0 2 C0 1.34 0 0.68 0 0 Z " fill="#1F1F1D" transform="translate(294,144)"/>
<path d="M0 0 C0.33 0.99 0.66 1.98 1 3 C0.34 2.67 -0.32 2.34 -1 2 C-0.67 1.34 -0.34 0.68 0 0 Z " fill="#212120" transform="translate(403,96)"/>
<path d="M0 0 C0.33 0.66 0.66 1.32 1 2 C0.01 1.67 -0.98 1.34 -2 1 C-1.34 0.67 -0.68 0.34 0 0 Z " fill="#232121" transform="translate(449,88)"/>
<path d="M0 0 C0.66 0 1.32 0 2 0 C1.67 0.66 1.34 1.32 1 2 C0.67 1.34 0.34 0.68 0 0 Z " fill="#242322" transform="translate(619,926)"/>
<path d="M0 0 C3 1 3 1 3 1 Z " fill="#232220" transform="translate(403,926)"/>
<path d="" fill="#222120" transform="translate(0,0)"/>
<path d="M0 0 C0.66 0.66 1.32 1.32 2 2 C1.34 2 0.68 2 0 2 C0 1.34 0 0.68 0 0 Z " fill="#1E1E1D" transform="translate(267,861)"/>
<path d="M0 0 C3 1 3 1 3 1 Z " fill="#1D1D1B" transform="translate(324,856)"/>
<path d="M0 0 C0.99 0.495 0.99 0.495 2 1 C1.01 1.495 1.01 1.495 0 2 C0 1.34 0 0.68 0 0 Z " fill="#1F1F1E" transform="translate(767,808)"/>
<path d="M0 0 C0.66 0.66 1.32 1.32 2 2 C1.34 2 0.68 2 0 2 C0 1.34 0 0.68 0 0 Z " fill="#1E1E1D" transform="translate(147,733)"/>
<path d="M0 0 C3 1 3 1 3 1 Z " fill="#242424" transform="translate(659,694)"/>
<path d="M0 0 C0.66 0.66 1.32 1.32 2 2 C1.34 2 0.68 2 0 2 C0 1.34 0 0.68 0 0 Z " fill="#21201F" transform="translate(323,661)"/>
<path d="M0 0 C0.66 0 1.32 0 2 0 C1.67 0.66 1.34 1.32 1 2 C0.67 1.34 0.34 0.68 0 0 Z " fill="#252323" transform="translate(872,661)"/>
<path d="" fill="#222221" transform="translate(0,0)"/>
<path d="M0 0 C0.33 0.66 0.66 1.32 1 2 C0.34 1.67 -0.32 1.34 -1 1 C-0.67 0.67 -0.34 0.34 0 0 Z " fill="#232221" transform="translate(881,640)"/>
<path d="M0 0 C3 1 3 1 3 1 Z " fill="#242322" transform="translate(569,593)"/>
<path d="" fill="#232220" transform="translate(0,0)"/>
<path d="M0 0 C3 1 3 1 3 1 Z " fill="#1A1B1B" transform="translate(709,584)"/>
<path d="" fill="#252323" transform="translate(0,0)"/>
<path d="" fill="#1F201F" transform="translate(0,0)"/>
<path d="M0 0 C3 1 3 1 3 1 Z " fill="#222021" transform="translate(417,496)"/>
<path d="M0 0 C3 1 3 1 3 1 Z " fill="#252424" transform="translate(563,478)"/>
<path d="M0 0 C0.66 0 1.32 0 2 0 C1.67 0.66 1.34 1.32 1 2 C0.67 1.34 0.34 0.68 0 0 Z " fill="#232122" transform="translate(88,452)"/>
<path d="" fill="#232222" transform="translate(0,0)"/>
<path d="" fill="#211F1F" transform="translate(0,0)"/>
<path d="" fill="#252323" transform="translate(0,0)"/>
<path d="M0 0 C0.66 0.66 1.32 1.32 2 2 C1.34 2 0.68 2 0 2 C0 1.34 0 0.68 0 0 Z " fill="#1E1D1C" transform="translate(873,359)"/>
<path d="" fill="#211F1F" transform="translate(0,0)"/>
<path d="M0 0 C0.66 0.66 1.32 1.32 2 2 C1.34 2 0.68 2 0 2 C0 1.34 0 0.68 0 0 Z " fill="#222121" transform="translate(563,309)"/>
<path d="M0 0 C0.66 0 1.32 0 2 0 C1.67 0.66 1.34 1.32 1 2 C0.67 1.34 0.34 0.68 0 0 Z " fill="#1E1D1C" transform="translate(705,171)"/>
<path d="M0 0 C3 1 3 1 3 1 Z " fill="#262524" transform="translate(616,134)"/>
<path d="M0 0 C3 1 3 1 3 1 Z " fill="#232120" transform="translate(433,127)"/>
<path d="M0 0 C0.99 0.495 0.99 0.495 2 1 C1.01 1.495 1.01 1.495 0 2 C0 1.34 0 0.68 0 0 Z " fill="#222120" transform="translate(377,105)"/>
<path d="M0 0 C3 1 3 1 3 1 Z " fill="#21201E" transform="translate(611,96)"/>
<path d="M0 0 C2 1 2 1 2 1 Z " fill="#272525" transform="translate(577,935)"/>
<path d="M0 0 C2 1 2 1 2 1 Z " fill="#21201F" transform="translate(641,919)"/>
<path d="M0 0 C2 1 2 1 2 1 Z " fill="#222320" transform="translate(373,917)"/>
<path d="M0 0 C2 1 2 1 2 1 Z " fill="#201F1E" transform="translate(369,915)"/>
<path d="M0 0 C2 1 2 1 2 1 Z " fill="#1E1D1C" transform="translate(354,909)"/>
<path d="" fill="#232320" transform="translate(0,0)"/>
<path d="M0 0 C2 1 2 1 2 1 Z " fill="#252222" transform="translate(447,899)"/>
<path d="M0 0 C2 1 2 1 2 1 Z " fill="#212221" transform="translate(587,897)"/>
<path d="M0 0 C2 1 2 1 2 1 Z " fill="#1F1E1D" transform="translate(436,897)"/>
<path d="" fill="#222121" transform="translate(0,0)"/>
<path d="" fill="#222120" transform="translate(0,0)"/>
<path d="M0 0 C2 1 2 1 2 1 Z " fill="#222120" transform="translate(404,889)"/>
<path d="M0 0 C2 1 2 1 2 1 Z " fill="#1F1F1E" transform="translate(382,882)"/>
<path d="M0 0 C2 1 2 1 2 1 Z " fill="#211F1F" transform="translate(640,880)"/>
<path d="" fill="#201F1E" transform="translate(0,0)"/>
<path d="" fill="#222120" transform="translate(0,0)"/>
<path d="M0 0 C2 1 2 1 2 1 Z " fill="#212120" transform="translate(662,872)"/>
<path d="M0 0 C2 1 2 1 2 1 Z " fill="#1F1F1E" transform="translate(340,864)"/>
<path d="M0 0 C2 1 2 1 2 1 Z " fill="#222120" transform="translate(704,851)"/>
<path d="M0 0 C2 1 2 1 2 1 Z " fill="#211F1E" transform="translate(712,848)"/>
<path d="M0 0 C2 1 2 1 2 1 Z " fill="#1B1B1A" transform="translate(310,848)"/>
<path d="" fill="#20201F" transform="translate(0,0)"/>
<path d="M0 0 C2 1 2 1 2 1 Z " fill="#212020" transform="translate(736,832)"/>
<path d="" fill="#1E1D1C" transform="translate(0,0)"/>
<path d="" fill="#232221" transform="translate(0,0)"/>
<path d="" fill="#1F1F1F" transform="translate(0,0)"/>
<path d="" fill="#1E1E1D" transform="translate(0,0)"/>
<path d="M0 0 C2 1 2 1 2 1 Z " fill="#252424" transform="translate(659,692)"/>
<path d="M0 0 C2 1 2 1 2 1 Z " fill="#21211E" transform="translate(361,691)"/>
<path d="M0 0 C2 1 2 1 2 1 Z " fill="#1F1F1E" transform="translate(515,678)"/>
<path d="M0 0 C2 1 2 1 2 1 Z " fill="#1F1F1D" transform="translate(329,669)"/>
<path d="" fill="#201F1E" transform="translate(0,0)"/>
<path d="" fill="#1F1C1C" transform="translate(0,0)"/>
<path d="M0 0 C2 1 2 1 2 1 Z " fill="#262724" transform="translate(476,648)"/>
<path d="M0 0 C2 1 2 1 2 1 Z " fill="#232320" transform="translate(497,643)"/>
<path d="" fill="#1E1B1A" transform="translate(0,0)"/>
<path d="" fill="#222120" transform="translate(0,0)"/>
<path d="" fill="#211F1F" transform="translate(0,0)"/>
<path d="" fill="#20211F" transform="translate(0,0)"/>
<path d="M0 0 C2 1 2 1 2 1 Z " fill="#242222" transform="translate(520,632)"/>
<path d="" fill="#21201F" transform="translate(0,0)"/>
<path d="" fill="#1C1B1B" transform="translate(0,0)"/>
<path d="M0 0 C2 1 2 1 2 1 Z " fill="#21201F" transform="translate(712,585)"/>
<path d="M0 0 C2 1 2 1 2 1 Z " fill="#222120" transform="translate(896,579)"/>
<path d="M0 0 C2 1 2 1 2 1 Z " fill="#242625" transform="translate(587,577)"/>
<path d="" fill="#242321" transform="translate(0,0)"/>
<path d="" fill="#202122" transform="translate(0,0)"/>
<path d="" fill="#252423" transform="translate(0,0)"/>
<path d="M0 0 C2 1 2 1 2 1 Z " fill="#20201F" transform="translate(292,553)"/>
<path d="M0 0 C2 1 2 1 2 1 Z " fill="#272525" transform="translate(411,534)"/>
<path d="M0 0 C2 1 2 1 2 1 Z " fill="#262625" transform="translate(403,534)"/>
<path d="M0 0 C2 1 2 1 2 1 Z " fill="#212222" transform="translate(410,498)"/>
<path d="M0 0 C2 1 2 1 2 1 Z " fill="#222120" transform="translate(408,496)"/>
<path d="M0 0 C2 1 2 1 2 1 Z " fill="#232223" transform="translate(467,480)"/>
<path d="M0 0 C2 1 2 1 2 1 Z " fill="#242322" transform="translate(561,479)"/>
<path d="" fill="#20201E" transform="translate(0,0)"/>
<path d="M0 0 C2 1 2 1 2 1 Z " fill="#1F1E1B" transform="translate(529,443)"/>
<path d="" fill="#242122" transform="translate(0,0)"/>
<path d="" fill="#232121" transform="translate(0,0)"/>
<path d="" fill="#232220" transform="translate(0,0)"/>
<path d="" fill="#232120" transform="translate(0,0)"/>
<path d="" fill="#22211F" transform="translate(0,0)"/>
<path d="M0 0 C2 1 2 1 2 1 Z " fill="#1F1D1D" transform="translate(384,368)"/>
<path d="" fill="#242220" transform="translate(0,0)"/>
<path d="" fill="#242220" transform="translate(0,0)"/>
<path d="M0 0 C2 1 2 1 2 1 Z " fill="#1D1C1B" transform="translate(418,336)"/>
<path d="M0 0 C2 1 2 1 2 1 Z " fill="#1C1A1A" transform="translate(428,328)"/>
<path d="" fill="#22201E" transform="translate(0,0)"/>
<path d="" fill="#1E1E1C" transform="translate(0,0)"/>
<path d="M0 0 C2 1 2 1 2 1 Z " fill="#1E1E1D" transform="translate(852,318)"/>
<path d="M0 0 C2 1 2 1 2 1 Z " fill="#212521" transform="translate(515,318)"/>
<path d="" fill="#22211E" transform="translate(0,0)"/>
<path d="M0 0 C2 1 2 1 2 1 Z " fill="#252420" transform="translate(592,275)"/>
<path d="M0 0 C2 1 2 1 2 1 Z " fill="#242523" transform="translate(537,275)"/>
<path d="" fill="#1F1E1F" transform="translate(0,0)"/>
<path d="M0 0 C2 1 2 1 2 1 Z " fill="#272725" transform="translate(579,273)"/>
<path d="M0 0 C2 1 2 1 2 1 Z " fill="#282726" transform="translate(548,273)"/>
<path d="" fill="#211F1F" transform="translate(0,0)"/>
<path d="" fill="#1E1D1A" transform="translate(0,0)"/>
<path d="M0 0 C2 1 2 1 2 1 Z " fill="#1D1C1C" transform="translate(184,233)"/>
<path d="" fill="#232221" transform="translate(0,0)"/>
<path d="M0 0 C2 1 2 1 2 1 Z " fill="#222122" transform="translate(737,191)"/>
<path d="" fill="#1D1C1B" transform="translate(0,0)"/>
<path d="M0 0 C2 1 2 1 2 1 Z " fill="#1C1A1B" transform="translate(259,168)"/>
<path d="M0 0 C2 1 2 1 2 1 Z " fill="#1E1D1E" transform="translate(697,167)"/>
<path d="" fill="#1E1E1C" transform="translate(0,0)"/>
<path d="M0 0 C2 1 2 1 2 1 Z " fill="#222120" transform="translate(689,163)"/>
<path d="" fill="#1F1C1E" transform="translate(0,0)"/>
<path d="M0 0 C2 1 2 1 2 1 Z " fill="#242223" transform="translate(681,159)"/>
<path d="M0 0 C2 1 2 1 2 1 Z " fill="#1D1E1E" transform="translate(340,159)"/>
<path d="M0 0 C2 1 2 1 2 1 Z " fill="#1D1C1A" transform="translate(742,152)"/>
<path d="" fill="#201E1D" transform="translate(0,0)"/>
<path d="M0 0 C2 1 2 1 2 1 Z " fill="#242222" transform="translate(644,143)"/>
<path d="M0 0 C2 1 2 1 2 1 Z " fill="#1C1B1A" transform="translate(307,137)"/>
<path d="M0 0 C2 1 2 1 2 1 Z " fill="#1B1A1B" transform="translate(309,136)"/>
<path d="M0 0 C2 1 2 1 2 1 Z " fill="#252422" transform="translate(411,134)"/>
<path d="M0 0 C2 1 2 1 2 1 Z " fill="#272524" transform="translate(582,126)"/>
<path d="M0 0 C2 1 2 1 2 1 Z " fill="#232122" transform="translate(442,125)"/>
<path d="M0 0 C2 1 2 1 2 1 Z " fill="#1F1E1D" transform="translate(681,120)"/>
<path d="M0 0 C2 1 2 1 2 1 Z " fill="#1E1E1D" transform="translate(517,119)"/>
<path d="M0 0 C2 1 2 1 2 1 Z " fill="#1D1D1A" transform="translate(662,112)"/>
<path d="M0 0 C2 1 2 1 2 1 Z " fill="#212020" transform="translate(360,112)"/>
<path d="M0 0 C2 1 2 1 2 1 Z " fill="#222120" transform="translate(620,98)"/>
<path d="M0 0 C2 1 2 1 2 1 Z " fill="#21201F" transform="translate(407,97)"/>
<path d="M0 0 C2 1 2 1 2 1 Z " fill="#252422" transform="translate(590,91)"/>
<path d="" fill="#23211F" transform="translate(0,0)"/>
<path d="M0 0 C2 1 2 1 2 1 Z " fill="#252522" transform="translate(433,91)"/>
<path d="M0 0 C2 1 2 1 2 1 Z " fill="#262625" transform="translate(438,90)"/>
<path d="M0 0 C2 1 2 1 2 1 Z " fill="#212020" transform="translate(456,88)"/>
<path d="M0 0 C2 1 2 1 2 1 Z " fill="#282726" transform="translate(531,85)"/>
<path d="M0 0 C2 1 2 1 2 1 Z " fill="#282727" transform="translate(483,85)"/>
<path d="" fill="#232223" transform="translate(0,0)"/>
<path d="" fill="#020202" transform="translate(0,0)"/>
<path d="" fill="#000100" transform="translate(0,0)"/>
<path d="" fill="#1F1D1B" transform="translate(0,0)"/>
<path d="" fill="#262727" transform="translate(0,0)"/>
<path d="" fill="#272727" transform="translate(0,0)"/>
<path d="" fill="#272526" transform="translate(0,0)"/>
<path d="" fill="#282726" transform="translate(0,0)"/>
<path d="" fill="#2B2828" transform="translate(0,0)"/>
<path d="" fill="#292728" transform="translate(0,0)"/>
<path d="" fill="#282927" transform="translate(0,0)"/>
<path d="" fill="#282826" transform="translate(0,0)"/>
<path d="" fill="#252324" transform="translate(0,0)"/>
<path d="" fill="#282625" transform="translate(0,0)"/>
<path d="" fill="#232222" transform="translate(0,0)"/>
<path d="" fill="#272625" transform="translate(0,0)"/>
<path d="" fill="#252423" transform="translate(0,0)"/>
<path d="" fill="#161615" transform="translate(0,0)"/>
<path d="" fill="#262526" transform="translate(0,0)"/>
<path d="" fill="#262623" transform="translate(0,0)"/>
<path d="" fill="#262425" transform="translate(0,0)"/>
<path d="" fill="#262625" transform="translate(0,0)"/>
<path d="" fill="#24221F" transform="translate(0,0)"/>
<path d="" fill="#242422" transform="translate(0,0)"/>
<path d="" fill="#232021" transform="translate(0,0)"/>
<path d="" fill="#252220" transform="translate(0,0)"/>
<path d="" fill="#000000" transform="translate(0,0)"/>
<path d="" fill="#060404" transform="translate(0,0)"/>
<path d="" fill="#1A191A" transform="translate(0,0)"/>
<path d="" fill="#252421" transform="translate(0,0)"/>
<path d="" fill="#1E1C1B" transform="translate(0,0)"/>
<path d="" fill="#222020" transform="translate(0,0)"/>
<path d="" fill="#242122" transform="translate(0,0)"/>
<path d="" fill="#212121" transform="translate(0,0)"/>
<path d="" fill="#222020" transform="translate(0,0)"/>
<path d="" fill="#232321" transform="translate(0,0)"/>
<path d="" fill="#20201F" transform="translate(0,0)"/>
<path d="" fill="#222121" transform="translate(0,0)"/>
<path d="" fill="#222221" transform="translate(0,0)"/>
<path d="" fill="#232120" transform="translate(0,0)"/>
<path d="" fill="#21201E" transform="translate(0,0)"/>
<path d="" fill="#201F1F" transform="translate(0,0)"/>
<path d="" fill="#242022" transform="translate(0,0)"/>
<path d="" fill="#252323" transform="translate(0,0)"/>
<path d="" fill="#262524" transform="translate(0,0)"/>
<path d="" fill="#242123" transform="translate(0,0)"/>
<path d="" fill="#21211F" transform="translate(0,0)"/>
<path d="" fill="#202120" transform="translate(0,0)"/>
<path d="" fill="#201F1E" transform="translate(0,0)"/>
<path d="" fill="#020301" transform="translate(0,0)"/>
<path d="" fill="#232220" transform="translate(0,0)"/>
<path d="" fill="#272524" transform="translate(0,0)"/>
<path d="" fill="#1F201F" transform="translate(0,0)"/>
<path d="" fill="#222220" transform="translate(0,0)"/>
<path d="" fill="#242221" transform="translate(0,0)"/>
<path d="" fill="#252222" transform="translate(0,0)"/>
<path d="" fill="#1A1A18" transform="translate(0,0)"/>
<path d="" fill="#242122" transform="translate(0,0)"/>
<path d="" fill="#222423" transform="translate(0,0)"/>
<path d="" fill="#222120" transform="translate(0,0)"/>
<path d="" fill="#232422" transform="translate(0,0)"/>
<path d="" fill="#1E1D20" transform="translate(0,0)"/>
<path d="" fill="#232120" transform="translate(0,0)"/>
<path d="" fill="#201F1D" transform="translate(0,0)"/>
<path d="" fill="#242223" transform="translate(0,0)"/>
<path d="" fill="#1F1F1F" transform="translate(0,0)"/>
<path d="" fill="#211F1F" transform="translate(0,0)"/>
<path d="" fill="#20201F" transform="translate(0,0)"/>
<path d="" fill="#242322" transform="translate(0,0)"/>
<path d="" fill="#232020" transform="translate(0,0)"/>
<path d="" fill="#232121" transform="translate(0,0)"/>
<path d="" fill="#241F1E" transform="translate(0,0)"/>
<path d="" fill="#242522" transform="translate(0,0)"/>
<path d="" fill="#20211E" transform="translate(0,0)"/>
<path d="" fill="#201E1F" transform="translate(0,0)"/>
<path d="" fill="#232221" transform="translate(0,0)"/>
<path d="" fill="#201E1C" transform="translate(0,0)"/>
<path d="" fill="#212220" transform="translate(0,0)"/>
<path d="" fill="#21201E" transform="translate(0,0)"/>
<path d="" fill="#1F2220" transform="translate(0,0)"/>
<path d="" fill="#22201E" transform="translate(0,0)"/>
<path d="" fill="#232022" transform="translate(0,0)"/>
<path d="" fill="#1E1E1C" transform="translate(0,0)"/>
<path d="" fill="#24221E" transform="translate(0,0)"/>
<path d="" fill="#23201E" transform="translate(0,0)"/>
<path d="" fill="#22211F" transform="translate(0,0)"/>
<path d="" fill="#242424" transform="translate(0,0)"/>
<path d="" fill="#23221F" transform="translate(0,0)"/>
<path d="" fill="#22201E" transform="translate(0,0)"/>
<path d="" fill="#23221F" transform="translate(0,0)"/>
<path d="" fill="#232220" transform="translate(0,0)"/>
<path d="" fill="#1F1F1D" transform="translate(0,0)"/>
<path d="" fill="#211F20" transform="translate(0,0)"/>
<path d="" fill="#1F1F1D" transform="translate(0,0)"/>
<path d="" fill="#1D1D1C" transform="translate(0,0)"/>
<path d="" fill="#211F20" transform="translate(0,0)"/>
<path d="" fill="#1C1A1B" transform="translate(0,0)"/>
<path d="" fill="#21201F" transform="translate(0,0)"/>
<path d="" fill="#212120" transform="translate(0,0)"/>
<path d="" fill="#23211F" transform="translate(0,0)"/>
<path d="" fill="#222022" transform="translate(0,0)"/>
<path d="" fill="#1E1E1C" transform="translate(0,0)"/>
<path d="" fill="#1F1E1C" transform="translate(0,0)"/>
<path d="" fill="#221E20" transform="translate(0,0)"/>
<path d="" fill="#1F1E1C" transform="translate(0,0)"/>
<path d="" fill="#1F1F1F" transform="translate(0,0)"/>
<path d="" fill="#1F1D1D" transform="translate(0,0)"/>
<path d="" fill="#201E1B" transform="translate(0,0)"/>
<path d="" fill="#201E1C" transform="translate(0,0)"/>
<path d="" fill="#1D1D1C" transform="translate(0,0)"/>
<path d="" fill="#222221" transform="translate(0,0)"/>
<path d="" fill="#232321" transform="translate(0,0)"/>
<path d="" fill="#211F1D" transform="translate(0,0)"/>
<path d="" fill="#222420" transform="translate(0,0)"/>
<path d="" fill="#1E1D1D" transform="translate(0,0)"/>
<path d="" fill="#1F1F1E" transform="translate(0,0)"/>
<path d="" fill="#1D1A1A" transform="translate(0,0)"/>
<path d="" fill="#1F1D1C" transform="translate(0,0)"/>
<path d="" fill="#211E1D" transform="translate(0,0)"/>
<path d="" fill="#1E1E1F" transform="translate(0,0)"/>
<path d="" fill="#1F1D20" transform="translate(0,0)"/>
<path d="" fill="#21211F" transform="translate(0,0)"/>
<path d="" fill="#1F1D1B" transform="translate(0,0)"/>
<path d="" fill="#1C1D1C" transform="translate(0,0)"/>
<path d="" fill="#20201E" transform="translate(0,0)"/>
<path d="" fill="#21201F" transform="translate(0,0)"/>
<path d="" fill="#1F1E1E" transform="translate(0,0)"/>
<path d="" fill="#201D1C" transform="translate(0,0)"/>
<path d="" fill="#1B1A19" transform="translate(0,0)"/>
<path d="" fill="#1F1E1D" transform="translate(0,0)"/>
<path d="" fill="#141414" transform="translate(0,0)"/>
<path d="" fill="#1F1D1D" transform="translate(0,0)"/>
<path d="" fill="#1F1F1D" transform="translate(0,0)"/>
<path d="" fill="#22231F" transform="translate(0,0)"/>
<path d="" fill="#201F21" transform="translate(0,0)"/>
<path d="" fill="#201D1F" transform="translate(0,0)"/>
<path d="" fill="#1F1D1F" transform="translate(0,0)"/>
<path d="" fill="#1C1C18" transform="translate(0,0)"/>
<path d="" fill="#141413" transform="translate(0,0)"/>
<path d="" fill="#1D1D1D" transform="translate(0,0)"/>
<path d="" fill="#1D1A17" transform="translate(0,0)"/>
<path d="" fill="#20201F" transform="translate(0,0)"/>
<path d="" fill="#21201D" transform="translate(0,0)"/>
<path d="" fill="#22211E" transform="translate(0,0)"/>
<path d="" fill="#1E1C1B" transform="translate(0,0)"/>
<path d="" fill="#1F201F" transform="translate(0,0)"/>
<path d="" fill="#292729" transform="translate(0,0)"/>
<path d="" fill="#1E1D19" transform="translate(0,0)"/>
<path d="" fill="#1D1C1B" transform="translate(0,0)"/>
<path d="" fill="#1E1D1A" transform="translate(0,0)"/>
<path d="" fill="#171714" transform="translate(0,0)"/>
<path d="" fill="#1D1C1A" transform="translate(0,0)"/>
<path d="" fill="#1E1C1A" transform="translate(0,0)"/>
<path d="" fill="#1A1A16" transform="translate(0,0)"/>
<path d="" fill="#1C1B1A" transform="translate(0,0)"/>
<path d="" fill="#1F1F1F" transform="translate(0,0)"/>
<path d="" fill="#201D1D" transform="translate(0,0)"/>
<path d="" fill="#1E1C1B" transform="translate(0,0)"/>
<path d="" fill="#1D1B1B" transform="translate(0,0)"/>
<path d="" fill="#1F2021" transform="translate(0,0)"/>
<path d="" fill="#23221D" transform="translate(0,0)"/>
<path d="" fill="#242221" transform="translate(0,0)"/>
<path d="" fill="#1C1B1C" transform="translate(0,0)"/>
<path d="" fill="#20201D" transform="translate(0,0)"/>
<path d="" fill="#232222" transform="translate(0,0)"/>
<path d="" fill="#23201E" transform="translate(0,0)"/>
<path d="" fill="#242223" transform="translate(0,0)"/>
<path d="" fill="#24221F" transform="translate(0,0)"/>
<path d="" fill="#1D1C1B" transform="translate(0,0)"/>
<path d="" fill="#1F1F1D" transform="translate(0,0)"/>
<path d="" fill="#1E1C1B" transform="translate(0,0)"/>
<path d="" fill="#1E1D1D" transform="translate(0,0)"/>
<path d="" fill="#262424" transform="translate(0,0)"/>
<path d="" fill="#1E1D1C" transform="translate(0,0)"/>
<path d="" fill="#202020" transform="translate(0,0)"/>
<path d="" fill="#1E1C1D" transform="translate(0,0)"/>
<path d="" fill="#20201F" transform="translate(0,0)"/>
<path d="" fill="#201F1D" transform="translate(0,0)"/>
<path d="" fill="#252422" transform="translate(0,0)"/>
<path d="" fill="#272423" transform="translate(0,0)"/>
<path d="" fill="#1D1E1D" transform="translate(0,0)"/>
<path d="" fill="#242524" transform="translate(0,0)"/>
<path d="" fill="#1F1E1B" transform="translate(0,0)"/>
<path d="" fill="#1F201E" transform="translate(0,0)"/>
<path d="" fill="#222020" transform="translate(0,0)"/>
<path d="" fill="#232221" transform="translate(0,0)"/>
<path d="" fill="#1F1F1E" transform="translate(0,0)"/>
<path d="" fill="#19191B" transform="translate(0,0)"/>
<path d="" fill="#1E1E1F" transform="translate(0,0)"/>
<path d="" fill="#21201E" transform="translate(0,0)"/>
<path d="" fill="#201F1E" transform="translate(0,0)"/>
<path d="" fill="#252423" transform="translate(0,0)"/>
<path d="" fill="#252123" transform="translate(0,0)"/>
<path d="" fill="#20211F" transform="translate(0,0)"/>
<path d="" fill="#232223" transform="translate(0,0)"/>
<path d="" fill="#252524" transform="translate(0,0)"/>
<path d="" fill="#1D1B1A" transform="translate(0,0)"/>
<path d="" fill="#212020" transform="translate(0,0)"/>
<path d="" fill="#282526" transform="translate(0,0)"/>
<path d="" fill="#242323" transform="translate(0,0)"/>
<path d="" fill="#272624" transform="translate(0,0)"/>
<path d="" fill="#1E1D1C" transform="translate(0,0)"/>
<path d="" fill="#232121" transform="translate(0,0)"/>
<path d="" fill="#262624" transform="translate(0,0)"/>
<path d="" fill="#22211F" transform="translate(0,0)"/>
<path d="" fill="#242323" transform="translate(0,0)"/>
<path d="" fill="#232021" transform="translate(0,0)"/>
<path d="" fill="#1D1D1C" transform="translate(0,0)"/>
<path d="" fill="#262325" transform="translate(0,0)"/>
<path d="" fill="#272624" transform="translate(0,0)"/>
<path d="" fill="#232222" transform="translate(0,0)"/>
<path d="" fill="#242322" transform="translate(0,0)"/>
<path d="" fill="#292726" transform="translate(0,0)"/>
<path d="" fill="#262726" transform="translate(0,0)"/>
<path d="" fill="#252625" transform="translate(0,0)"/>
<path d="" fill="#242424" transform="translate(0,0)"/>
<path d="" fill="#262522" transform="translate(0,0)"/>
<path d="" fill="#22211F" transform="translate(0,0)"/>
<path d="" fill="#222120" transform="translate(0,0)"/>
<path d="" fill="#222221" transform="translate(0,0)"/>
<path d="" fill="#1E1F1E" transform="translate(0,0)"/>
<path d="" fill="#1C1C1C" transform="translate(0,0)"/>
<path d="" fill="#201E20" transform="translate(0,0)"/>
<path d="" fill="#20211E" transform="translate(0,0)"/>
<path d="" fill="#262523" transform="translate(0,0)"/>
<path d="" fill="#252322" transform="translate(0,0)"/>
<path d="" fill="#201F1E" transform="translate(0,0)"/>
<path d="" fill="#222322" transform="translate(0,0)"/>
<path d="" fill="#1E1D1C" transform="translate(0,0)"/>
<path d="" fill="#212020" transform="translate(0,0)"/>
<path d="" fill="#211E1F" transform="translate(0,0)"/>
<path d="" fill="#1D1C1C" transform="translate(0,0)"/>
<path d="" fill="#202221" transform="translate(0,0)"/>
<path d="" fill="#1F201E" transform="translate(0,0)"/>
<path d="" fill="#211E1D" transform="translate(0,0)"/>
<path d="" fill="#1F1F1E" transform="translate(0,0)"/>
<path d="" fill="#262626" transform="translate(0,0)"/>
<path d="" fill="#282626" transform="translate(0,0)"/>
<path d="" fill="#1F1E1E" transform="translate(0,0)"/>
<path d="" fill="#252422" transform="translate(0,0)"/>
<path d="" fill="#232221" transform="translate(0,0)"/>
<path d="" fill="#212121" transform="translate(0,0)"/>
<path d="" fill="#242420" transform="translate(0,0)"/>
<path d="" fill="#222322" transform="translate(0,0)"/>
<path d="" fill="#232222" transform="translate(0,0)"/>
<path d="" fill="#232323" transform="translate(0,0)"/>
<path d="" fill="#242321" transform="translate(0,0)"/>
<path d="" fill="#272325" transform="translate(0,0)"/>
<path d="" fill="#282826" transform="translate(0,0)"/>
<path d="" fill="#232121" transform="translate(0,0)"/>
<path d="" fill="#262423" transform="translate(0,0)"/>
<path d="" fill="#231F21" transform="translate(0,0)"/>
<path d="" fill="#252422" transform="translate(0,0)"/>
<path d="" fill="#252526" transform="translate(0,0)"/>
<path d="" fill="#222120" transform="translate(0,0)"/>
<path d="" fill="#242322" transform="translate(0,0)"/>
<path d="" fill="#252323" transform="translate(0,0)"/>
<path d="" fill="#262824" transform="translate(0,0)"/>
<path d="" fill="#232426" transform="translate(0,0)"/>
<path d="" fill="#221E1F" transform="translate(0,0)"/>
<path d="" fill="#212020" transform="translate(0,0)"/>
<path d="" fill="#222222" transform="translate(0,0)"/>
<path d="" fill="#222322" transform="translate(0,0)"/>
<path d="" fill="#1F201F" transform="translate(0,0)"/>
<path d="" fill="#201F1D" transform="translate(0,0)"/>
<path d="" fill="#242421" transform="translate(0,0)"/>
<path d="" fill="#232320" transform="translate(0,0)"/>
<path d="" fill="#22211F" transform="translate(0,0)"/>
<path d="" fill="#232321" transform="translate(0,0)"/>
<path d="" fill="#212020" transform="translate(0,0)"/>
<path d="" fill="#242324" transform="translate(0,0)"/>
<path d="" fill="#242323" transform="translate(0,0)"/>
<path d="" fill="#242220" transform="translate(0,0)"/>
<path d="" fill="#242221" transform="translate(0,0)"/>
<path d="" fill="#252320" transform="translate(0,0)"/>
<path d="" fill="#242322" transform="translate(0,0)"/>
<path d="" fill="#232422" transform="translate(0,0)"/>
<path d="" fill="#242322" transform="translate(0,0)"/>
<path d="" fill="#242323" transform="translate(0,0)"/>
<path d="" fill="#1E1C1B" transform="translate(0,0)"/>
<path d="" fill="#252524" transform="translate(0,0)"/>
<path d="" fill="#242423" transform="translate(0,0)"/>
<path d="" fill="#262623" transform="translate(0,0)"/>
<path d="" fill="#232222" transform="translate(0,0)"/>
<path d="" fill="#222120" transform="translate(0,0)"/>
<path d="" fill="#232321" transform="translate(0,0)"/>
<path d="" fill="#21201F" transform="translate(0,0)"/>
<path d="" fill="#22211F" transform="translate(0,0)"/>
<path d="" fill="#181818" transform="translate(0,0)"/>
<path d="" fill="#242322" transform="translate(0,0)"/>
<path d="" fill="#252526" transform="translate(0,0)"/>
<path d="" fill="#222021" transform="translate(0,0)"/>
<path d="" fill="#22211E" transform="translate(0,0)"/>
<path d="" fill="#21201F" transform="translate(0,0)"/>
<path d="" fill="#212020" transform="translate(0,0)"/>
<path d="" fill="#22201F" transform="translate(0,0)"/>
<path d="" fill="#20221E" transform="translate(0,0)"/>
<path d="" fill="#202021" transform="translate(0,0)"/>
<path d="" fill="#242222" transform="translate(0,0)"/>
<path d="" fill="#222321" transform="translate(0,0)"/>
<path d="" fill="#232221" transform="translate(0,0)"/>
<path d="" fill="#242524" transform="translate(0,0)"/>
<path d="" fill="#222121" transform="translate(0,0)"/>
<path d="" fill="#252122" transform="translate(0,0)"/>
<path d="" fill="#1C1C1B" transform="translate(0,0)"/>
<path d="" fill="#242222" transform="translate(0,0)"/>
<path d="" fill="#212020" transform="translate(0,0)"/>
<path d="" fill="#1F1F1E" transform="translate(0,0)"/>
<path d="" fill="#222122" transform="translate(0,0)"/>
<path d="" fill="#232121" transform="translate(0,0)"/>
<path d="" fill="#1F1E1E" transform="translate(0,0)"/>
<path d="" fill="#232420" transform="translate(0,0)"/>
<path d="" fill="#242421" transform="translate(0,0)"/>
<path d="" fill="#211F22" transform="translate(0,0)"/>
<path d="" fill="#242325" transform="translate(0,0)"/>
<path d="" fill="#242021" transform="translate(0,0)"/>
<path d="" fill="#221F1F" transform="translate(0,0)"/>
<path d="" fill="#1C1D1B" transform="translate(0,0)"/>
<path d="" fill="#1D1F1D" transform="translate(0,0)"/>
<path d="" fill="#242324" transform="translate(0,0)"/>
<path d="" fill="#242322" transform="translate(0,0)"/>
<path d="" fill="#232222" transform="translate(0,0)"/>
<path d="" fill="#232120" transform="translate(0,0)"/>
<path d="" fill="#242421" transform="translate(0,0)"/>
<path d="" fill="#232221" transform="translate(0,0)"/>
<path d="" fill="#211F20" transform="translate(0,0)"/>
<path d="" fill="#222321" transform="translate(0,0)"/>
<path d="" fill="#242323" transform="translate(0,0)"/>
<path d="" fill="#242120" transform="translate(0,0)"/>
<path d="" fill="#1D1F1E" transform="translate(0,0)"/>
<path d="" fill="#201F22" transform="translate(0,0)"/>
<path d="" fill="#23201F" transform="translate(0,0)"/>
<path d="" fill="#242422" transform="translate(0,0)"/>
<path d="" fill="#242223" transform="translate(0,0)"/>
<path d="" fill="#252525" transform="translate(0,0)"/>
<path d="" fill="#292927" transform="translate(0,0)"/>
<path d="" fill="#201E1E" transform="translate(0,0)"/>
<path d="" fill="#282726" transform="translate(0,0)"/>
<path d="" fill="#252524" transform="translate(0,0)"/>
<path d="" fill="#242323" transform="translate(0,0)"/>
<path d="" fill="#282727" transform="translate(0,0)"/>
<path d="" fill="#202020" transform="translate(0,0)"/>
<path d="" fill="#1D1D1A" transform="translate(0,0)"/>
<path d="" fill="#272727" transform="translate(0,0)"/>
<path d="" fill="#272726" transform="translate(0,0)"/>
<path d="" fill="#22211F" transform="translate(0,0)"/>
<path d="" fill="#282625" transform="translate(0,0)"/>
<path d="" fill="#262525" transform="translate(0,0)"/>
<path d="" fill="#262725" transform="translate(0,0)"/>
<path d="" fill="#242326" transform="translate(0,0)"/>
<path d="" fill="#262522" transform="translate(0,0)"/>
<path d="" fill="#252422" transform="translate(0,0)"/>
<path d="" fill="#252424" transform="translate(0,0)"/>
<path d="" fill="#272725" transform="translate(0,0)"/>
<path d="" fill="#201D1F" transform="translate(0,0)"/>
<path d="" fill="#212220" transform="translate(0,0)"/>
<path d="" fill="#221E1F" transform="translate(0,0)"/>
<path d="" fill="#272424" transform="translate(0,0)"/>
<path d="" fill="#1D1D1D" transform="translate(0,0)"/>
<path d="" fill="#232121" transform="translate(0,0)"/>
<path d="" fill="#202222" transform="translate(0,0)"/>
<path d="" fill="#232222" transform="translate(0,0)"/>
<path d="" fill="#202022" transform="translate(0,0)"/>
<path d="" fill="#232323" transform="translate(0,0)"/>
<path d="" fill="#242023" transform="translate(0,0)"/>
<path d="" fill="#242322" transform="translate(0,0)"/>
<path d="" fill="#232121" transform="translate(0,0)"/>
<path d="" fill="#232320" transform="translate(0,0)"/>
<path d="" fill="#252321" transform="translate(0,0)"/>
<path d="" fill="#252523" transform="translate(0,0)"/>
<path d="" fill="#262624" transform="translate(0,0)"/>
<path d="" fill="#222423" transform="translate(0,0)"/>
<path d="" fill="#222221" transform="translate(0,0)"/>
<path d="" fill="#20211E" transform="translate(0,0)"/>
<path d="" fill="#212020" transform="translate(0,0)"/>
<path d="" fill="#252324" transform="translate(0,0)"/>
<path d="" fill="#20211D" transform="translate(0,0)"/>
<path d="" fill="#232322" transform="translate(0,0)"/>
<path d="" fill="#242423" transform="translate(0,0)"/>
<path d="" fill="#1E1E1E" transform="translate(0,0)"/>
<path d="" fill="#242423" transform="translate(0,0)"/>
<path d="" fill="#1F2020" transform="translate(0,0)"/>
<path d="" fill="#232323" transform="translate(0,0)"/>
<path d="" fill="#1E1D1C" transform="translate(0,0)"/>
<path d="" fill="#201F1E" transform="translate(0,0)"/>
<path d="" fill="#242323" transform="translate(0,0)"/>
<path d="" fill="#232222" transform="translate(0,0)"/>
<path d="" fill="#181618" transform="translate(0,0)"/>
<path d="" fill="#242324" transform="translate(0,0)"/>
<path d="" fill="#221E20" transform="translate(0,0)"/>
<path d="" fill="#20201F" transform="translate(0,0)"/>
<path d="" fill="#211F1F" transform="translate(0,0)"/>
<path d="" fill="#252324" transform="translate(0,0)"/>
<path d="" fill="#201D1D" transform="translate(0,0)"/>
<path d="" fill="#222121" transform="translate(0,0)"/>
<path d="" fill="#1F1F1D" transform="translate(0,0)"/>
<path d="" fill="#222221" transform="translate(0,0)"/>
<path d="" fill="#262423" transform="translate(0,0)"/>
<path d="" fill="#1C1A19" transform="translate(0,0)"/>
<path d="" fill="#221F20" transform="translate(0,0)"/>
<path d="" fill="#242224" transform="translate(0,0)"/>
<path d="" fill="#1F1F1D" transform="translate(0,0)"/>
<path d="" fill="#1B1B1A" transform="translate(0,0)"/>
<path d="" fill="#242023" transform="translate(0,0)"/>
<path d="" fill="#262423" transform="translate(0,0)"/>
<path d="" fill="#222120" transform="translate(0,0)"/>
<path d="" fill="#212120" transform="translate(0,0)"/>
<path d="" fill="#212122" transform="translate(0,0)"/>
<path d="" fill="#1F1D1F" transform="translate(0,0)"/>
<path d="" fill="#1E201D" transform="translate(0,0)"/>
<path d="" fill="#1B1B1A" transform="translate(0,0)"/>
<path d="" fill="#1F1D1D" transform="translate(0,0)"/>
<path d="" fill="#1F201F" transform="translate(0,0)"/>
<path d="" fill="#242323" transform="translate(0,0)"/>
<path d="" fill="#1F201F" transform="translate(0,0)"/>
<path d="" fill="#20211E" transform="translate(0,0)"/>
<path d="" fill="#201F1E" transform="translate(0,0)"/>
<path d="" fill="#1D1C1C" transform="translate(0,0)"/>
<path d="" fill="#1E1F1F" transform="translate(0,0)"/>
<path d="" fill="#1E1F1C" transform="translate(0,0)"/>
<path d="" fill="#232422" transform="translate(0,0)"/>
<path d="" fill="#1D1D1D" transform="translate(0,0)"/>
<path d="" fill="#1C1D1B" transform="translate(0,0)"/>
<path d="" fill="#211F1E" transform="translate(0,0)"/>
<path d="" fill="#232522" transform="translate(0,0)"/>
<path d="" fill="#1D1C1B" transform="translate(0,0)"/>
<path d="" fill="#242322" transform="translate(0,0)"/>
<path d="" fill="#201E1F" transform="translate(0,0)"/>
<path d="" fill="#222021" transform="translate(0,0)"/>
<path d="" fill="#212221" transform="translate(0,0)"/>
<path d="" fill="#222222" transform="translate(0,0)"/>
<path d="" fill="#222221" transform="translate(0,0)"/>
<path d="" fill="#212222" transform="translate(0,0)"/>
<path d="" fill="#20201F" transform="translate(0,0)"/>
<path d="" fill="#232423" transform="translate(0,0)"/>
<path d="" fill="#222021" transform="translate(0,0)"/>
<path d="" fill="#211F21" transform="translate(0,0)"/>
<path d="" fill="#1F1F20" transform="translate(0,0)"/>
<path d="" fill="#232223" transform="translate(0,0)"/>
<path d="" fill="#262522" transform="translate(0,0)"/>
<path d="" fill="#221D20" transform="translate(0,0)"/>
<path d="" fill="#21221F" transform="translate(0,0)"/>
<path d="" fill="#201F20" transform="translate(0,0)"/>
<path d="" fill="#222221" transform="translate(0,0)"/>
<path d="" fill="#202120" transform="translate(0,0)"/>
<path d="" fill="#212020" transform="translate(0,0)"/>
<path d="" fill="#232020" transform="translate(0,0)"/>
<path d="" fill="#212321" transform="translate(0,0)"/>
<path d="" fill="#1D1D1C" transform="translate(0,0)"/>
<path d="" fill="#20221F" transform="translate(0,0)"/>
<path d="" fill="#232221" transform="translate(0,0)"/>
<path d="" fill="#222121" transform="translate(0,0)"/>
<path d="" fill="#221F20" transform="translate(0,0)"/>
<path d="" fill="#222220" transform="translate(0,0)"/>
<path d="" fill="#201F20" transform="translate(0,0)"/>
<path d="" fill="#222220" transform="translate(0,0)"/>
<path d="" fill="#171715" transform="translate(0,0)"/>
<path d="" fill="#222021" transform="translate(0,0)"/>
<path d="" fill="#201F1F" transform="translate(0,0)"/>
<path d="" fill="#232323" transform="translate(0,0)"/>
<path d="" fill="#242524" transform="translate(0,0)"/>
<path d="" fill="#221F1E" transform="translate(0,0)"/>
<path d="" fill="#202021" transform="translate(0,0)"/>
<path d="" fill="#1F1F1F" transform="translate(0,0)"/>
<path d="" fill="#1E1E1D" transform="translate(0,0)"/>
<path d="" fill="#1F2020" transform="translate(0,0)"/>
<path d="" fill="#1B1B1C" transform="translate(0,0)"/>
<path d="" fill="#21201F" transform="translate(0,0)"/>
<path d="" fill="#212220" transform="translate(0,0)"/>
<path d="" fill="#20201F" transform="translate(0,0)"/>
<path d="" fill="#211F20" transform="translate(0,0)"/>
<path d="" fill="#21201F" transform="translate(0,0)"/>
<path d="" fill="#201E1D" transform="translate(0,0)"/>
<path d="" fill="#20201D" transform="translate(0,0)"/>
<path d="" fill="#161618" transform="translate(0,0)"/>
<path d="" fill="#1C1C1B" transform="translate(0,0)"/>
<path d="" fill="#201F1E" transform="translate(0,0)"/>
<path d="" fill="#22221F" transform="translate(0,0)"/>
<path d="" fill="#111312" transform="translate(0,0)"/>
<path d="" fill="#22221F" transform="translate(0,0)"/>
<path d="" fill="#201E1F" transform="translate(0,0)"/>
<path d="" fill="#232123" transform="translate(0,0)"/>
<path d="" fill="#242220" transform="translate(0,0)"/>
<path d="" fill="#242321" transform="translate(0,0)"/>
<path d="" fill="#201F1E" transform="translate(0,0)"/>
<path d="" fill="#211E1E" transform="translate(0,0)"/>
<path d="" fill="#181717" transform="translate(0,0)"/>
<path d="" fill="#242322" transform="translate(0,0)"/>
<path d="" fill="#1F1F1E" transform="translate(0,0)"/>
<path d="" fill="#211F1C" transform="translate(0,0)"/>
<path d="" fill="#21211F" transform="translate(0,0)"/>
<path d="" fill="#22211F" transform="translate(0,0)"/>
<path d="" fill="#252221" transform="translate(0,0)"/>
<path d="" fill="#211F1D" transform="translate(0,0)"/>
<path d="" fill="#201D1F" transform="translate(0,0)"/>
<path d="" fill="#212121" transform="translate(0,0)"/>
<path d="" fill="#201E1E" transform="translate(0,0)"/>
<path d="" fill="#1E1D1D" transform="translate(0,0)"/>
<path d="" fill="#201F1E" transform="translate(0,0)"/>
<path d="" fill="#20201F" transform="translate(0,0)"/>
<path d="" fill="#1F1F1E" transform="translate(0,0)"/>
<path d="" fill="#232121" transform="translate(0,0)"/>
<path d="" fill="#212020" transform="translate(0,0)"/>
<path d="" fill="#212022" transform="translate(0,0)"/>
<path d="" fill="#20201E" transform="translate(0,0)"/>
<path d="" fill="#222020" transform="translate(0,0)"/>
<path d="" fill="#20201D" transform="translate(0,0)"/>
<path d="" fill="#222222" transform="translate(0,0)"/>
<path d="" fill="#201E1D" transform="translate(0,0)"/>
<path d="" fill="#232122" transform="translate(0,0)"/>
<path d="" fill="#242422" transform="translate(0,0)"/>
<path d="" fill="#272624" transform="translate(0,0)"/>
<path d="" fill="#1D1A1B" transform="translate(0,0)"/>
<path d="" fill="#1B1B1A" transform="translate(0,0)"/>
<path d="" fill="#21201F" transform="translate(0,0)"/>
<path d="" fill="#242222" transform="translate(0,0)"/>
<path d="" fill="#22201F" transform="translate(0,0)"/>
<path d="" fill="#201E1E" transform="translate(0,0)"/>
<path d="" fill="#1C1D1D" transform="translate(0,0)"/>
<path d="" fill="#20201F" transform="translate(0,0)"/>
<path d="" fill="#20201F" transform="translate(0,0)"/>
<path d="" fill="#201F1D" transform="translate(0,0)"/>
<path d="" fill="#242220" transform="translate(0,0)"/>
<path d="" fill="#1B1B18" transform="translate(0,0)"/>
<path d="" fill="#201F20" transform="translate(0,0)"/>
<path d="" fill="#212222" transform="translate(0,0)"/>
<path d="" fill="#201E1D" transform="translate(0,0)"/>
<path d="" fill="#1E1F1D" transform="translate(0,0)"/>
<path d="" fill="#201E1E" transform="translate(0,0)"/>
<path d="" fill="#221E1F" transform="translate(0,0)"/>
<path d="" fill="#212320" transform="translate(0,0)"/>
<path d="" fill="#202021" transform="translate(0,0)"/>
<path d="" fill="#212120" transform="translate(0,0)"/>
<path d="" fill="#22201F" transform="translate(0,0)"/>
<path d="" fill="#212020" transform="translate(0,0)"/>
<path d="" fill="#1A1A1A" transform="translate(0,0)"/>
<path d="" fill="#212120" transform="translate(0,0)"/>
<path d="" fill="#222120" transform="translate(0,0)"/>
<path d="" fill="#1E1D1C" transform="translate(0,0)"/>
<path d="" fill="#20201F" transform="translate(0,0)"/>
<path d="" fill="#181916" transform="translate(0,0)"/>
<path d="" fill="#212021" transform="translate(0,0)"/>
<path d="" fill="#1E1C1D" transform="translate(0,0)"/>
<path d="" fill="#232221" transform="translate(0,0)"/>
<path d="" fill="#242522" transform="translate(0,0)"/>
<path d="" fill="#242122" transform="translate(0,0)"/>
<path d="" fill="#222122" transform="translate(0,0)"/>
<path d="" fill="#202121" transform="translate(0,0)"/>
<path d="" fill="#1D1A1B" transform="translate(0,0)"/>
<path d="" fill="#191715" transform="translate(0,0)"/>
<path d="" fill="#1B1B1A" transform="translate(0,0)"/>
<path d="" fill="#232221" transform="translate(0,0)"/>
<path d="" fill="#201E1D" transform="translate(0,0)"/>
<path d="" fill="#211F1E" transform="translate(0,0)"/>
<path d="" fill="#1C1C1A" transform="translate(0,0)"/>
<path d="" fill="#272724" transform="translate(0,0)"/>
<path d="" fill="#262723" transform="translate(0,0)"/>
<path d="" fill="#252523" transform="translate(0,0)"/>
<path d="" fill="#272726" transform="translate(0,0)"/>
<path d="" fill="#242423" transform="translate(0,0)"/>
<path d="" fill="#272524" transform="translate(0,0)"/>
<path d="" fill="#282625" transform="translate(0,0)"/>
<path d="" fill="#1F1D1C" transform="translate(0,0)"/>
<path d="" fill="#1C1A1B" transform="translate(0,0)"/>
<path d="" fill="#1C1A19" transform="translate(0,0)"/>
<path d="" fill="#1F1E1B" transform="translate(0,0)"/>
<path d="" fill="#1E201C" transform="translate(0,0)"/>
<path d="" fill="#1E1B1C" transform="translate(0,0)"/>
<path d="" fill="#1F1F20" transform="translate(0,0)"/>
<path d="" fill="#1E1D1D" transform="translate(0,0)"/>
<path d="" fill="#202220" transform="translate(0,0)"/>
<path d="" fill="#222021" transform="translate(0,0)"/>
<path d="" fill="#1C1C1A" transform="translate(0,0)"/>
<path d="" fill="#1F1F1F" transform="translate(0,0)"/>
<path d="" fill="#1A1B19" transform="translate(0,0)"/>
<path d="" fill="#201D1E" transform="translate(0,0)"/>
<path d="" fill="#1E1F1A" transform="translate(0,0)"/>
<path d="" fill="#232221" transform="translate(0,0)"/>
<path d="" fill="#1E1E1B" transform="translate(0,0)"/>
<path d="" fill="#1A1A1A" transform="translate(0,0)"/>
<path d="" fill="#201D1D" transform="translate(0,0)"/>
<path d="" fill="#1E1C1B" transform="translate(0,0)"/>
<path d="" fill="#1B1818" transform="translate(0,0)"/>
<path d="" fill="#21201F" transform="translate(0,0)"/>
<path d="" fill="#1D1D1A" transform="translate(0,0)"/>
<path d="" fill="#1D1B1B" transform="translate(0,0)"/>
<path d="" fill="#1F1B1C" transform="translate(0,0)"/>
<path d="" fill="#1C1D1D" transform="translate(0,0)"/>
<path d="" fill="#1F1F1C" transform="translate(0,0)"/>
<path d="" fill="#211F1E" transform="translate(0,0)"/>
<path d="" fill="#1F1D1D" transform="translate(0,0)"/>
<path d="" fill="#20211E" transform="translate(0,0)"/>
<path d="" fill="#23211F" transform="translate(0,0)"/>
<path d="" fill="#1B1C19" transform="translate(0,0)"/>
<path d="" fill="#1B1A19" transform="translate(0,0)"/>
<path d="" fill="#1E1E1D" transform="translate(0,0)"/>
<path d="" fill="#1D1D1C" transform="translate(0,0)"/>
<path d="" fill="#1F1E1D" transform="translate(0,0)"/>
<path d="" fill="#1E1E1D" transform="translate(0,0)"/>
<path d="" fill="#1E201D" transform="translate(0,0)"/>
<path d="" fill="#1F1F1F" transform="translate(0,0)"/>
<path d="" fill="#222020" transform="translate(0,0)"/>
<path d="" fill="#1F1F1D" transform="translate(0,0)"/>
<path d="" fill="#22211F" transform="translate(0,0)"/>
<path d="" fill="#232020" transform="translate(0,0)"/>
<path d="" fill="#1A1917" transform="translate(0,0)"/>
<path d="" fill="#1F201D" transform="translate(0,0)"/>
<path d="" fill="#1E1C1B" transform="translate(0,0)"/>
<path d="" fill="#232120" transform="translate(0,0)"/>
<path d="" fill="#1F1F1E" transform="translate(0,0)"/>
<path d="" fill="#222120" transform="translate(0,0)"/>
<path d="" fill="#201F1D" transform="translate(0,0)"/>
<path d="" fill="#222221" transform="translate(0,0)"/>
<path d="" fill="#221F1E" transform="translate(0,0)"/>
<path d="" fill="#252121" transform="translate(0,0)"/>
<path d="" fill="#1E1F1D" transform="translate(0,0)"/>
<path d="" fill="#191819" transform="translate(0,0)"/>
<path d="" fill="#1C1B19" transform="translate(0,0)"/>
<path d="" fill="#1D1C1B" transform="translate(0,0)"/>
<path d="" fill="#1D1D1B" transform="translate(0,0)"/>
<path d="" fill="#191918" transform="translate(0,0)"/>
<path d="" fill="#1B1C1B" transform="translate(0,0)"/>
<path d="" fill="#1E1A1C" transform="translate(0,0)"/>
<path d="" fill="#1D1B1B" transform="translate(0,0)"/>
<path d="" fill="#1D1D1E" transform="translate(0,0)"/>
<path d="" fill="#1E1C1C" transform="translate(0,0)"/>
<path d="" fill="#181A1B" transform="translate(0,0)"/>
<path d="" fill="#1D1E20" transform="translate(0,0)"/>
<path d="" fill="#222121" transform="translate(0,0)"/>
<path d="" fill="#21211F" transform="translate(0,0)"/>
<path d="" fill="#1E1E1C" transform="translate(0,0)"/>
<path d="" fill="#1E1E1E" transform="translate(0,0)"/>
<path d="" fill="#181819" transform="translate(0,0)"/>
<path d="" fill="#242523" transform="translate(0,0)"/>
<path d="" fill="#222222" transform="translate(0,0)"/>
<path d="" fill="#242322" transform="translate(0,0)"/>
<path d="" fill="#262523" transform="translate(0,0)"/>
<path d="" fill="#242224" transform="translate(0,0)"/>
<path d="" fill="#201C1A" transform="translate(0,0)"/>
<path d="" fill="#20201E" transform="translate(0,0)"/>
<path d="" fill="#242322" transform="translate(0,0)"/>
<path d="" fill="#1C1C1C" transform="translate(0,0)"/>
<path d="" fill="#1C1E1D" transform="translate(0,0)"/>
<path d="" fill="#211E1D" transform="translate(0,0)"/>
<path d="" fill="#1F1C1D" transform="translate(0,0)"/>
<path d="" fill="#201E1F" transform="translate(0,0)"/>
<path d="" fill="#252425" transform="translate(0,0)"/>
<path d="" fill="#262625" transform="translate(0,0)"/>
<path d="" fill="#1A1A1A" transform="translate(0,0)"/>
<path d="" fill="#242423" transform="translate(0,0)"/>
<path d="" fill="#252623" transform="translate(0,0)"/>
<path d="" fill="#1A1D1C" transform="translate(0,0)"/>
<path d="" fill="#201F1F" transform="translate(0,0)"/>
<path d="" fill="#252424" transform="translate(0,0)"/>
<path d="" fill="#282723" transform="translate(0,0)"/>
<path d="" fill="#252220" transform="translate(0,0)"/>
<path d="" fill="#252423" transform="translate(0,0)"/>
<path d="" fill="#1B1A19" transform="translate(0,0)"/>
<path d="" fill="#1B191A" transform="translate(0,0)"/>
<path d="" fill="#1E1F1E" transform="translate(0,0)"/>
<path d="" fill="#1F1E1D" transform="translate(0,0)"/>
<path d="" fill="#272624" transform="translate(0,0)"/>
<path d="" fill="#272525" transform="translate(0,0)"/>
<path d="" fill="#282626" transform="translate(0,0)"/>
<path d="" fill="#262625" transform="translate(0,0)"/>
<path d="" fill="#262624" transform="translate(0,0)"/>
<path d="" fill="#262526" transform="translate(0,0)"/>
<path d="" fill="#282625" transform="translate(0,0)"/>
<path d="" fill="#242522" transform="translate(0,0)"/>
<path d="" fill="#1C1B1B" transform="translate(0,0)"/>
<path d="" fill="#1F211E" transform="translate(0,0)"/>
<path d="" fill="#1F201D" transform="translate(0,0)"/>
<path d="" fill="#211E1E" transform="translate(0,0)"/>
<path d="" fill="#242321" transform="translate(0,0)"/>
<path d="" fill="#232221" transform="translate(0,0)"/>
<path d="" fill="#221F20" transform="translate(0,0)"/>
<path d="" fill="#1F1E1D" transform="translate(0,0)"/>
<path d="" fill="#211F1E" transform="translate(0,0)"/>
<path d="" fill="#221F1D" transform="translate(0,0)"/>
<path d="" fill="#20201D" transform="translate(0,0)"/>
<path d="" fill="#211F1E" transform="translate(0,0)"/>
<path d="" fill="#202120" transform="translate(0,0)"/>
<path d="" fill="#20201E" transform="translate(0,0)"/>
<path d="" fill="#22231F" transform="translate(0,0)"/>
<path d="" fill="#1E1D1A" transform="translate(0,0)"/>
<path d="" fill="#21231D" transform="translate(0,0)"/>
<path d="" fill="#211F1E" transform="translate(0,0)"/>
<path d="" fill="#222322" transform="translate(0,0)"/>
<path d="" fill="#1F1F1E" transform="translate(0,0)"/>
<path d="" fill="#252422" transform="translate(0,0)"/>
<path d="" fill="#000000" transform="translate(0,0)"/>
<path d="" fill="#22201F" transform="translate(0,0)"/>
<path d="" fill="#222120" transform="translate(0,0)"/>
<path d="" fill="#211F1D" transform="translate(0,0)"/>
<path d="" fill="#222320" transform="translate(0,0)"/>
<path d="" fill="#252424" transform="translate(0,0)"/>
<path d="" fill="#252424" transform="translate(0,0)"/>
<path d="" fill="#232121" transform="translate(0,0)"/>
<path d="" fill="#252322" transform="translate(0,0)"/>
<path d="" fill="#252424" transform="translate(0,0)"/>
<path d="" fill="#232222" transform="translate(0,0)"/>
<path d="" fill="#232323" transform="translate(0,0)"/>
<path d="" fill="#292624" transform="translate(0,0)"/>
<path d="" fill="#272724" transform="translate(0,0)"/>
<path d="" fill="#262624" transform="translate(0,0)"/>
<path d="" fill="#282826" transform="translate(0,0)"/>
<path d="" fill="#080A07" transform="translate(0,0)"/>
<path d="" fill="#1E1D1C" transform="translate(0,0)"/>
</svg>
