<svg width="22" height="21" viewBox="0 0 22 21" fill="none" xmlns="http://www.w3.org/2000/svg">
<path d="M0.75 2.75C0.75 1.64543 1.64543 0.75 2.75 0.75H18.75C19.8546 0.75 20.75 1.64543 20.75 2.75V3.56751C20.75 4.32739 20.4616 5.05895 19.9432 5.61447L14.2879 11.6737C13.9422 12.044 13.75 12.5317 13.75 13.0383V17.132C13.75 17.5107 13.536 17.857 13.1972 18.0264L9.19721 20.0264C8.53231 20.3588 7.75 19.8753 7.75 19.132V13.0383C7.75 12.5317 7.55776 12.044 7.21211 11.6737L1.55683 5.61446C1.03836 5.05895 0.75 4.32739 0.75 3.56751V2.75Z" stroke="#717171" stroke-width="1.5"/>
</svg>
