<svg width="20" height="17" viewBox="0 0 20 17" fill="none" xmlns="http://www.w3.org/2000/svg">
<path d="M18.5494 7.50123L19.2075 7.14137L18.5494 7.50123ZM18.5494 9.07021L19.2074 9.43008L18.5494 9.07021ZM0.950581 7.50109L1.6086 7.86095L0.950581 7.50109ZM0.950569 9.07007L0.29254 9.42992H0.29254L0.950569 9.07007ZM17.2736 4.59471C16.977 4.30554 16.5022 4.31154 16.213 4.60811C15.9238 4.90468 15.9298 5.37952 16.2264 5.66869L17.2736 4.59471ZM7.43628 13.2453C7.03505 13.1424 6.62638 13.3843 6.5235 13.7855C6.42062 14.1867 6.66249 14.5954 7.06372 14.6983L7.43628 13.2453ZM12.354 2.62679L12.1599 3.35123L12.354 2.62679ZM4.82264 12.9945L4.45374 13.6475L5.25475 12.3815L4.82264 12.9945ZM1.6086 7.86095C3.18153 4.98483 6.2379 3.03564 9.74997 3.03564V1.53564C5.66882 1.53564 2.11847 3.80251 0.292558 7.14122L1.6086 7.86095ZM17.8914 8.71034C16.3185 11.5865 13.2621 13.5356 9.75003 13.5356V15.0356C13.8312 15.0356 17.3815 12.7688 19.2074 9.43008L17.8914 8.71034ZM17.8914 7.86108C18.0362 8.12586 18.0362 8.44556 17.8914 8.71034L19.2074 9.43008C19.5975 8.71683 19.5975 7.85462 19.2075 7.14137L17.8914 7.86108ZM0.292558 7.14122C-0.0975129 7.85447 -0.0975195 8.71667 0.29254 9.42992L1.6086 8.71021C1.4638 8.44543 1.4638 8.12573 1.6086 7.86095L0.292558 7.14122ZM16.2264 5.66869C16.8847 6.31052 17.4474 7.04912 17.8914 7.86108L19.2075 7.14137C18.6913 6.19744 18.0376 5.33968 17.2736 4.59471L16.2264 5.66869ZM9.75003 13.5356C8.95019 13.5356 8.17506 13.4347 7.43628 13.2453L7.06372 14.6983C7.92323 14.9187 8.82349 15.0356 9.75003 15.0356V13.5356ZM9.74997 3.03564C10.5846 3.03564 11.3923 3.14555 12.1599 3.35123L12.5481 1.90234C11.655 1.66304 10.7168 1.53564 9.74997 1.53564V3.03564ZM3.67995 11.276C2.84529 10.5534 2.14151 9.68468 1.6086 8.71021L0.29254 9.42992C0.912022 10.5627 1.72944 11.5714 2.69816 12.4101L3.67995 11.276ZM5.19154 12.3415C4.65181 12.0366 4.1456 11.6791 3.67995 11.276L2.69816 12.4101C3.23873 12.8781 3.82659 13.2932 4.45374 13.6475L5.19154 12.3415ZM2.75695 12.4561L4.39054 13.6075L5.25475 12.3815L3.62116 11.23L2.75695 12.4561ZM12.1599 3.35123C12.8769 3.54335 13.5596 3.81923 14.1971 4.16783L14.9168 2.85179C14.176 2.44664 13.3821 2.1258 12.5481 1.90234L12.1599 3.35123Z" fill="#717171"/>
<path d="M17.2144 0.75L2.21436 15.75" stroke="#717171" stroke-width="1.5" stroke-linecap="round" stroke-linejoin="round"/>
<path d="M6.75 8.28564C6.75 6.62879 8.09315 5.28564 9.75 5.28564" stroke="#717171" stroke-width="1.5" stroke-linecap="round"/>
</svg>
