<svg width="18" height="20" viewBox="0 0 18 20" fill="none" xmlns="http://www.w3.org/2000/svg">
<rect x="0.75" y="6.75" width="16" height="12" rx="4" stroke="#717171" stroke-width="1.5"/>
<path d="M8.75 13.75L8.75 11.75" stroke="#717171" stroke-width="1.5" stroke-linecap="round" stroke-linejoin="round"/>
<path d="M11.4167 2.89229C11.6535 3.23217 12.1209 3.31575 12.4608 3.07899C12.8007 2.84222 12.8843 2.37476 12.6475 2.03489L11.4167 2.89229ZM5.02819 1.79862C4.77082 2.12318 4.82528 2.59492 5.14984 2.85228C5.47439 3.10965 5.94613 3.05519 6.2035 2.73064L5.02819 1.79862ZM5.5 6.75V4.75H4V6.75H5.5ZM5.5 4.75C5.5 2.95508 6.95507 1.5 8.75 1.5V2.98023e-07C6.12665 2.98023e-07 4 2.12665 4 4.75H5.5ZM12.6475 2.03489C12.081 1.2217 11.2744 0.606063 10.3405 0.27421L9.83826 1.68762C10.4772 1.91467 11.0291 2.3359 11.4167 2.89229L12.6475 2.03489ZM10.3405 0.27421C9.40669 -0.0576438 8.39244 -0.0890943 7.43983 0.184263L7.85357 1.62607C8.50535 1.43904 9.19932 1.46056 9.83826 1.68762L10.3405 0.27421ZM7.43983 0.184263C6.48722 0.45762 5.64397 1.02209 5.02819 1.79862L6.2035 2.73064C6.62482 2.19933 7.20178 1.81311 7.85357 1.62607L7.43983 0.184263Z" fill="#717171"/>
</svg>
