<svg width="21" height="22" viewBox="0 0 21 22" fill="none" xmlns="http://www.w3.org/2000/svg">
<circle cx="3" cy="3" r="3" transform="matrix(-1 0 0 1 13.2358 7.75)" stroke="#717171" stroke-width="1.5"/>
<path d="M14.7359 3.6875L15.1109 3.03798L15.1109 3.03798L14.7359 3.6875ZM14.7358 17.8121L14.3608 17.1626L14.7358 17.8121ZM5.73583 17.8121L5.36083 18.4617H5.36083L5.73583 17.8121ZM5.73583 3.6875L6.11083 4.33702L5.73583 3.6875ZM7.15877 1.76508L6.42807 1.59601L7.15877 1.76508ZM3.54767 17.4902L3.37549 16.7602L3.54767 17.4902ZM2.63878 17.253L3.20832 16.765L2.63878 17.253ZM7.77505 20.445L7.95903 19.7179L7.77505 20.445ZM7.15882 19.7348L7.88954 19.5658L7.15882 19.7348ZM13.3129 19.7348L12.5821 19.5658L13.3129 19.7348ZM12.6966 20.445L12.8806 21.172L12.6966 20.445ZM17.8328 17.253L17.2633 16.765L17.8328 17.253ZM19.6795 7.45289L20.3876 7.20569L19.6795 7.45289ZM19.3294 8.43352L18.8524 7.85469L19.3294 8.43352ZM16.9238 4.0095L16.7517 3.27952L16.9238 4.0095ZM19.3294 13.0665L18.8524 13.6453L19.3294 13.0665ZM19.6795 14.0471L18.9714 13.7999L19.6795 14.0471ZM13.313 1.76511L12.5823 1.93418L13.313 1.76511ZM12.5823 1.93418C12.8081 2.91005 13.4237 3.79592 14.3609 4.33702L15.1109 3.03798C14.5485 2.71329 14.1797 2.18381 14.0437 1.59603L12.5823 1.93418ZM14.3609 4.33702C15.2218 4.83408 16.1996 4.9508 17.0959 4.73949L16.7517 3.27952C16.2125 3.40663 15.6279 3.3365 15.1109 3.03798L14.3609 4.33702ZM20.3876 7.20569C19.942 5.92937 19.2629 4.76337 18.4021 3.75871L17.263 4.73471C18.0045 5.60004 18.5885 6.60328 18.9714 7.70008L20.3876 7.20569ZM18.9858 10.75C18.9858 10.0506 19.304 9.42623 19.8063 9.01236L18.8524 7.85469C18.0191 8.54128 17.4858 9.58367 17.4858 10.75H18.9858ZM19.8063 12.4876C19.304 12.0738 18.9858 11.4494 18.9858 10.75H17.4858C17.4858 11.9163 18.0191 12.9587 18.8524 13.6453L19.8063 12.4876ZM18.4024 17.741C19.2631 16.7364 19.9421 15.5705 20.3876 14.2943L18.9714 13.7999C18.5885 14.8966 18.0046 15.8997 17.2633 16.765L18.4024 17.741ZM15.1108 18.4617C15.6279 18.1631 16.2126 18.093 16.7518 18.2202L17.0961 16.7602C16.1998 16.5488 15.2219 16.6655 14.3608 17.1626L15.1108 18.4617ZM14.0436 19.9038C14.1795 19.316 14.5484 18.7864 15.1108 18.4617L14.3608 17.1626C13.4235 17.7038 12.8079 18.5898 12.5821 19.5658L14.0436 19.9038ZM10.2358 21.5C11.1475 21.5 12.0337 21.3863 12.8806 21.172L12.5126 19.7179C11.7851 19.902 11.0224 20 10.2358 20V21.5ZM7.59108 21.1721C8.43794 21.3863 9.32413 21.5 10.2358 21.5V20C9.44921 20 8.68659 19.902 7.95903 19.7179L7.59108 21.1721ZM5.36083 18.4617C5.92327 18.7864 6.29215 19.316 6.42811 19.9038L7.88954 19.5658C7.6638 18.5898 7.04816 17.7038 6.11083 17.1626L5.36083 18.4617ZM3.71984 18.2202C4.25905 18.093 4.84371 18.1631 5.36083 18.4617L6.11083 17.1626C5.24979 16.6655 4.27184 16.5488 3.37549 16.7602L3.71984 18.2202ZM0.0839984 14.2943C0.529523 15.5705 1.20851 16.7364 2.06925 17.741L3.20832 16.765C2.46696 15.8998 1.88304 14.8966 1.50018 13.7999L0.0839984 14.2943ZM1.48582 10.75C1.48582 11.4494 1.16763 12.0738 0.665309 12.4876L1.61914 13.6453C2.45246 12.9587 2.98582 11.9163 2.98582 10.75H1.48582ZM0.66531 9.01235C1.16763 9.42622 1.48582 10.0506 1.48582 10.75H2.98582C2.98582 9.58366 2.45246 8.54126 1.61914 7.85468L0.66531 9.01235ZM2.06953 3.75867C1.20866 4.76334 0.529574 5.92934 0.0839999 7.20567L1.50018 7.70007C1.88308 6.60326 2.4671 5.60001 3.20857 4.73468L2.06953 3.75867ZM5.36083 3.03798C4.84376 3.33651 4.25915 3.40664 3.71998 3.2795L3.37572 4.73946C4.27201 4.95081 5.24987 4.8341 6.11083 4.33702L5.36083 3.03798ZM6.42807 1.59601C6.29207 2.18379 5.92321 2.71329 5.36083 3.03798L6.11083 4.33702C7.04805 3.79591 7.66366 2.91003 7.88946 1.93415L6.42807 1.59601ZM10.2358 0C9.3241 0 8.43788 0.11366 7.59099 0.327959L7.95896 1.78213C8.68654 1.59802 9.44919 1.5 10.2358 1.5V0ZM12.8808 0.328005C12.0338 0.113676 11.1475 0 10.2358 0V1.5C11.0224 1.5 11.7851 1.59803 12.5128 1.78217L12.8808 0.328005ZM7.88946 1.93415C7.90507 1.86668 7.93152 1.81909 7.95204 1.79413C7.96967 1.77269 7.97281 1.77862 7.95896 1.78213L7.59099 0.327959C6.89979 0.502863 6.54289 1.0998 6.42807 1.59601L7.88946 1.93415ZM1.61914 7.85468C1.55826 7.80451 1.52287 7.75024 1.50867 7.71394C1.49673 7.68341 1.50552 7.68478 1.50018 7.70007L0.0839999 7.20567C-0.182014 7.96766 0.230141 8.6538 0.66531 9.01235L1.61914 7.85468ZM3.37549 16.7602C3.30826 16.7761 3.25399 16.7735 3.22252 16.7662C3.19547 16.7599 3.19919 16.7544 3.20832 16.765L2.06925 17.741C2.5323 18.2814 3.22427 18.3371 3.71984 18.2202L3.37549 16.7602ZM7.95903 19.7179C7.97289 19.7214 7.96974 19.7273 7.95212 19.7059C7.93159 19.6809 7.90514 19.6333 7.88954 19.5658L6.42811 19.9038C6.54289 20.4001 6.8998 20.9971 7.59108 21.1721L7.95903 19.7179ZM12.5821 19.5658C12.5665 19.6333 12.5401 19.6809 12.5196 19.7059C12.5019 19.7273 12.4988 19.7214 12.5126 19.7179L12.8806 21.172C13.5719 20.9971 13.9288 20.4001 14.0436 19.9038L12.5821 19.5658ZM17.2633 16.765C17.2724 16.7543 17.2761 16.7598 17.2491 16.7661C17.2176 16.7735 17.1633 16.7761 17.0961 16.7602L16.7518 18.2202C17.2474 18.337 17.9393 18.2814 18.4024 17.741L17.2633 16.765ZM18.9714 7.70008C18.9661 7.68479 18.9749 7.68343 18.9629 7.71395C18.9487 7.75025 18.9133 7.80452 18.8524 7.85469L19.8063 9.01236C20.2414 8.65381 20.6536 7.96767 20.3876 7.20569L18.9714 7.70008ZM1.50018 13.7999C1.50552 13.8152 1.49673 13.8166 1.50867 13.7861C1.52287 13.7498 1.55826 13.6955 1.61914 13.6453L0.665309 12.4876C0.23014 12.8462 -0.182015 13.5323 0.0839984 14.2943L1.50018 13.7999ZM17.0959 4.73949C17.1631 4.72364 17.2174 4.72624 17.2488 4.73357C17.2759 4.73987 17.2722 4.74537 17.263 4.73471L18.4021 3.75871C17.9391 3.21835 17.2472 3.16269 16.7517 3.27952L17.0959 4.73949ZM3.20857 4.73468C3.19944 4.74534 3.19572 4.73984 3.22277 4.73354C3.25423 4.72621 3.30849 4.72361 3.37572 4.73946L3.71998 3.2795C3.22445 3.16265 2.53256 3.2183 2.06953 3.75867L3.20857 4.73468ZM18.8524 13.6453C18.9133 13.6955 18.9487 13.7497 18.9629 13.786C18.9749 13.8166 18.9661 13.8152 18.9714 13.7999L20.3876 14.2943C20.6536 13.5323 20.2414 12.8462 19.8063 12.4876L18.8524 13.6453ZM14.0437 1.59603C13.9288 1.09983 13.5719 0.502915 12.8808 0.328005L12.5128 1.78217C12.4989 1.77866 12.5021 1.77273 12.5197 1.79417C12.5402 1.81913 12.5667 1.86672 12.5823 1.93418L14.0437 1.59603Z" fill="#717171"/>
</svg>
